<svg width="24" height="24" viewBox="0 0 24 24" fill="none" xmlns="http://www.w3.org/2000/svg">
<path d="M12 16.5C11.7929 16.5 11.625 16.6679 11.625 16.875C11.625 17.0821 11.7929 17.25 12 17.25C12.2071 17.25 12.375 17.0821 12.375 16.875C12.375 16.6679 12.2071 16.5 12 16.5V16.5" stroke="#0E1C28" stroke-width="1.5" stroke-linecap="round" stroke-linejoin="round"/>
<path d="M12 13.5V6" stroke="#0E1C28" stroke-width="1.5" stroke-linecap="round"/>
<path fill-rule="evenodd" clip-rule="evenodd" d="M1.27995 13.281C0.573352 12.5735 0.573352 11.4274 1.27995 10.72L10.7199 1.28098C11.0591 0.940966 11.5197 0.749878 11.9999 0.749878C12.4802 0.749878 12.9408 0.940966 13.2799 1.28098L22.7199 10.72C23.4265 11.4274 23.4265 12.5735 22.7199 13.281L13.2799 22.72C12.5728 23.4265 11.4271 23.4265 10.7199 22.72L1.27995 13.281Z" stroke="#0E1C28" stroke-width="1.5" stroke-linecap="round" stroke-linejoin="round"/>
</svg>
