<svg width="24" height="24" viewBox="0 0 24 24" fill="none" xmlns="http://www.w3.org/2000/svg">
<path fill-rule="evenodd" clip-rule="evenodd" d="M1.51001 3.75305C1.51001 2.92462 2.18158 2.25305 3.01001 2.25305H21.01C21.8384 2.25305 22.51 2.92462 22.51 3.75305V20.2531C22.51 21.0815 21.8384 21.7531 21.01 21.7531H3.01001C2.18158 21.7531 1.51001 21.0815 1.51001 20.2531V3.75305Z" stroke="#0E1C28" stroke-width="1.5" stroke-linecap="round" stroke-linejoin="round"/>
<path d="M1.51001 6.75305H22.51" stroke="#0E1C28" stroke-width="1.5" stroke-linecap="round" stroke-linejoin="round"/>
<path d="M1.51001 15.7531H6.58301C7.15126 15.7532 7.67081 15.4323 7.92501 14.9241L9.70001 11.3731C9.8358 11.1014 10.122 10.9384 10.425 10.9603C10.7279 10.9822 10.9877 11.1847 11.083 11.4731L12.938 17.0381C13.0336 17.3258 13.2932 17.5277 13.5956 17.5496C13.8981 17.5715 14.1839 17.4091 14.32 17.1381L16.1 13.5831C16.3538 13.0748 16.8729 12.7535 17.441 12.7531H22.51" stroke="#0E1C28" stroke-width="1.5" stroke-linecap="round" stroke-linejoin="round"/>
</svg>
