<svg width="24" height="24" viewBox="0 0 24 24" fill="none" xmlns="http://www.w3.org/2000/svg">
<path fill-rule="evenodd" clip-rule="evenodd" d="M17.25 12C17.25 14.8995 14.8995 17.25 12 17.25C9.10051 17.25 6.75 14.8995 6.75 12C6.75 9.10051 9.10051 6.75 12 6.75C14.8995 6.75 17.25 9.10051 17.25 12Z" stroke="#0E1C28" stroke-width="1.5" stroke-linecap="round" stroke-linejoin="round"/>
<path d="M17.2501 12V14.25C17.2501 15.9068 18.5932 17.25 20.2501 17.25C21.9069 17.25 23.2501 15.9068 23.2501 14.25V12C23.2499 6.78303 19.6628 2.25082 14.5853 1.05233C9.50793 -0.146164 4.27277 2.30359 1.93968 6.96976C-0.393402 11.6359 0.787895 17.2939 4.79314 20.6367C8.79838 23.9796 14.5764 24.1299 18.7501 21" stroke="#0E1C28" stroke-width="1.5" stroke-linecap="round" stroke-linejoin="round"/>
</svg>
