<svg width="24" height="24" viewBox="0 0 24 24" fill="none" xmlns="http://www.w3.org/2000/svg">
<path d="M18.752 19.579C13.639 20.305 12 22.125 12 22.125V4.71204C12 4.71204 9.54502 1.98504 1.26802 1.87504C1.13072 1.87331 0.998612 1.92745 0.902018 2.02504C0.804477 2.12305 0.74981 2.25576 0.750018 2.39404V18.769C0.747722 19.0493 0.969905 19.2799 1.25002 19.288C9.54302 19.4 12 22.125 12 22.125" stroke="#0E1C28" stroke-width="1.5" stroke-linecap="round" stroke-linejoin="round"/>
<path d="M12 4.71204C12 4.71204 14.455 1.98504 22.732 1.87504C22.8693 1.87331 23.0014 1.92745 23.098 2.02504C23.1955 2.12305 23.2502 2.25576 23.25 2.39404V14.625" stroke="#0E1C28" stroke-width="1.5" stroke-linecap="round" stroke-linejoin="round"/>
<path fill-rule="evenodd" clip-rule="evenodd" d="M18.75 19.564V15.174C18.7544 14.8672 19.0061 14.6217 19.313 14.625H23.25L18.75 19.564Z" stroke="#0E1C28" stroke-width="1.5" stroke-linecap="round" stroke-linejoin="round"/>
</svg>
