<svg width="24" height="24" viewBox="0 0 24 24" fill="none" xmlns="http://www.w3.org/2000/svg">
<path fill-rule="evenodd" clip-rule="evenodd" d="M21.75 18.75H11.25L5.25 23.25V18.75H2.25C1.42157 18.75 0.75 18.0784 0.75 17.25V2.25C0.75 1.42157 1.42157 0.75 2.25 0.75H21.75C22.5784 0.75 23.25 1.42157 23.25 2.25V17.25C23.25 18.0784 22.5784 18.75 21.75 18.75Z" stroke="#0E1C28" stroke-width="1.5" stroke-linecap="round" stroke-linejoin="round"/>
<path d="M7.5 9.375C7.29289 9.375 7.125 9.54289 7.125 9.75C7.125 9.95711 7.29289 10.125 7.5 10.125C7.70711 10.125 7.875 9.95711 7.875 9.75C7.875 9.54289 7.70711 9.375 7.5 9.375" stroke="#0E1C28" stroke-width="1.5" stroke-linecap="round" stroke-linejoin="round"/>
<path d="M12 9.375C11.7929 9.375 11.625 9.54289 11.625 9.75C11.625 9.95711 11.7929 10.125 12 10.125C12.2071 10.125 12.375 9.95711 12.375 9.75C12.375 9.54289 12.2071 9.375 12 9.375" stroke="#0E1C28" stroke-width="1.5" stroke-linecap="round" stroke-linejoin="round"/>
<path d="M16.5 9.375C16.2929 9.375 16.125 9.54289 16.125 9.75C16.125 9.95711 16.2929 10.125 16.5 10.125C16.7071 10.125 16.875 9.95711 16.875 9.75C16.875 9.54289 16.7071 9.375 16.5 9.375" stroke="#0E1C28" stroke-width="1.5" stroke-linecap="round" stroke-linejoin="round"/>
</svg>
