<svg width="24" height="24" viewBox="0 0 24 24" fill="none" xmlns="http://www.w3.org/2000/svg">
<path d="M7.479 17.226H2.25C1.42157 17.226 0.75 16.5545 0.75 15.726V3.74805C0.75 2.91962 1.42157 2.24805 2.25 2.24805H15.75C16.5784 2.24805 17.25 2.91962 17.25 3.74805V7.48205" stroke="#0E1C28" stroke-width="1.5" stroke-linecap="round" stroke-linejoin="round"/>
<path d="M0.75708 6.74695H17.2571" stroke="#0E1C28" stroke-width="1.5" stroke-linejoin="round"/>
<path d="M5.25 3.748V0.75" stroke="#0E1C28" stroke-width="1.5" stroke-linecap="round" stroke-linejoin="round"/>
<path d="M12.75 3.748V0.75" stroke="#0E1C28" stroke-width="1.5" stroke-linecap="round" stroke-linejoin="round"/>
<path fill-rule="evenodd" clip-rule="evenodd" d="M15.75 21.005C18.6495 21.005 21 18.6545 21 15.755C21 12.8555 18.6495 10.505 15.75 10.505C12.8505 10.505 10.5 12.8555 10.5 15.755C10.5 18.6545 12.8505 21.005 15.75 21.005Z" stroke="#0E1C28" stroke-width="1.5" stroke-linecap="round" stroke-linejoin="round"/>
<path d="M23.2499 23.25L19.4619 19.465" stroke="#0E1C28" stroke-width="1.5" stroke-linecap="round" stroke-linejoin="round"/>
</svg>
