<svg width="24" height="24" viewBox="0 0 24 24" fill="none" xmlns="http://www.w3.org/2000/svg">
<path fill-rule="evenodd" clip-rule="evenodd" d="M16.0221 15.624C16.3221 19.48 22.0361 16.824 21.5841 18.164C19.0591 25.645 8.93612 23.849 4.61812 19.329C0.450776 15.0811 0.460569 8.27594 4.64012 4.04004C8.86812 -0.187965 16.0321 -0.494965 19.9281 4.01804C27.5601 12.858 15.7581 12.183 16.0221 15.624Z" stroke="#0E1C28" stroke-width="1.5" stroke-linecap="round" stroke-linejoin="round"/>
<path fill-rule="evenodd" clip-rule="evenodd" d="M7.19017 14.8291C8.02964 14.8291 8.71017 14.1485 8.71017 13.3091C8.71017 12.4696 8.02964 11.7891 7.19017 11.7891C6.35069 11.7891 5.67017 12.4696 5.67017 13.3091C5.67017 14.1485 6.35069 14.8291 7.19017 14.8291Z" stroke="#0E1C28" stroke-width="1.5" stroke-linecap="round" stroke-linejoin="round"/>
<path fill-rule="evenodd" clip-rule="evenodd" d="M10.9502 19.664C11.7896 19.664 12.4702 18.9835 12.4702 18.144C12.4702 17.3046 11.7896 16.624 10.9502 16.624C10.1107 16.624 9.43018 17.3046 9.43018 18.144C9.43018 18.9835 10.1107 19.664 10.9502 19.664Z" stroke="#0E1C28" stroke-width="1.5" stroke-linecap="round" stroke-linejoin="round"/>
<path fill-rule="evenodd" clip-rule="evenodd" d="M14.5862 7.43209C15.4256 7.43209 16.1062 6.75156 16.1062 5.91209C16.1062 5.07262 15.4256 4.39209 14.5862 4.39209C13.7467 4.39209 13.0662 5.07262 13.0662 5.91209C13.0662 6.75156 13.7467 7.43209 14.5862 7.43209Z" stroke="#0E1C28" stroke-width="1.5" stroke-linecap="round" stroke-linejoin="round"/>
<path fill-rule="evenodd" clip-rule="evenodd" d="M8.14012 9.04403C8.97959 9.04403 9.66012 8.3635 9.66012 7.52403C9.66012 6.68456 8.97959 6.00403 8.14012 6.00403C7.30064 6.00403 6.62012 6.68456 6.62012 7.52403C6.62012 8.3635 7.30064 9.04403 8.14012 9.04403Z" stroke="#0E1C28" stroke-width="1.5" stroke-linecap="round" stroke-linejoin="round"/>
</svg>
