<svg width="24" height="24" viewBox="0 0 24 24" fill="none" xmlns="http://www.w3.org/2000/svg">
<path fill-rule="evenodd" clip-rule="evenodd" d="M4.5 23.249C6.57107 23.249 8.25 21.5701 8.25 19.499C8.25 17.428 6.57107 15.749 4.5 15.749C2.42893 15.749 0.75 17.428 0.75 19.499C0.75 21.5701 2.42893 23.249 4.5 23.249Z" stroke="#0E1C28" stroke-width="1.5" stroke-linecap="round" stroke-linejoin="round"/>
<path fill-rule="evenodd" clip-rule="evenodd" d="M4.5 8.24902C6.57107 8.24902 8.25 6.57009 8.25 4.49902C8.25 2.42796 6.57107 0.749023 4.5 0.749023C2.42893 0.749023 0.75 2.42796 0.75 4.49902C0.75 6.57009 2.42893 8.24902 4.5 8.24902Z" stroke="#0E1C28" stroke-width="1.5" stroke-linecap="round" stroke-linejoin="round"/>
<path d="M23.25 20.249L2.25 7.49902" stroke="#0E1C28" stroke-width="1.5" stroke-linecap="round" stroke-linejoin="round"/>
<path d="M23.25 3.74902L2.25 16.499" stroke="#0E1C28" stroke-width="1.5" stroke-linecap="round" stroke-linejoin="round"/>
</svg>
