<svg width="25" height="25" viewBox="0 0 25 25" fill="none" xmlns="http://www.w3.org/2000/svg">
<path fill-rule="evenodd" clip-rule="evenodd" d="M15.998 23.3229H9.99805L10.748 19.0029H15.248L15.998 23.3229V23.3229Z" stroke="#0E1C28" stroke-width="1.5" stroke-linecap="round" stroke-linejoin="round"/>
<path d="M7.74805 23.3229H18.248" stroke="#0E1C28" stroke-width="1.5" stroke-linecap="round" stroke-linejoin="round"/>
<path fill-rule="evenodd" clip-rule="evenodd" d="M1.74805 4.7229C1.74805 3.06604 3.09119 1.7229 4.74805 1.7229H21.248C22.9049 1.7229 24.248 3.06605 24.248 4.7229V16.0029C24.248 17.6598 22.9049 19.0029 21.248 19.0029H4.74805C3.09119 19.0029 1.74805 17.6598 1.74805 16.0029V4.7229Z" stroke="#0E1C28" stroke-width="1.5" stroke-linecap="round" stroke-linejoin="round"/>
<path d="M1.74805 11.8028L5.71805 7.99261C5.85871 7.85748 6.04955 7.78156 6.24855 7.78156C6.44754 7.78156 6.63838 7.85748 6.77905 7.99261L8.71805 9.85405C8.85871 9.98917 9.04955 10.0651 9.24855 10.0651C9.44754 10.0651 9.63838 9.98917 9.77905 9.85405L13.748 6.04285" stroke="#0E1C28" stroke-width="1.5" stroke-linecap="round" stroke-linejoin="round"/>
<path d="M1.74805 16.1229H24.248" stroke="#0E1C28" stroke-width="1.5" stroke-linecap="round" stroke-linejoin="round"/>
<path d="M15.248 10.3629V12.5229" stroke="#0E1C28" stroke-width="1.5" stroke-linecap="round" stroke-linejoin="round"/>
<path d="M21.248 10.3629V12.5229" stroke="#0E1C28" stroke-width="1.5" stroke-linecap="round" stroke-linejoin="round"/>
<path d="M18.248 8.20288V12.5229" stroke="#0E1C28" stroke-width="1.5" stroke-linecap="round" stroke-linejoin="round"/>
</svg>
