<svg width="24" height="24" viewBox="0 0 24 24" fill="none" xmlns="http://www.w3.org/2000/svg">
<path fill-rule="evenodd" clip-rule="evenodd" d="M12.0001 4.5C8.9934 4.52272 6.1189 5.73903 4.00907 7.88131C1.89924 10.0236 0.726931 12.9163 0.750093 15.923V18C0.750093 18.8284 1.42167 19.5 2.25009 19.5H21.7501C22.5785 19.5 23.2501 18.8284 23.2501 18V15.92C23.2967 9.66001 18.2601 4.54732 12.0001 4.5Z" stroke="#0E1C28" stroke-width="1.5" stroke-linecap="round" stroke-linejoin="round"/>
<path d="M9 19.5V18.75C9 17.0931 10.3431 15.75 12 15.75C13.6569 15.75 15 17.0931 15 18.75V19.5" stroke="#0E1C28" stroke-width="1.5" stroke-linecap="round" stroke-linejoin="round"/>
<path d="M14.25 9.00305L12 15.7531" stroke="#0E1C28" stroke-width="1.5" stroke-linecap="round" stroke-linejoin="round"/>
<path d="M4.875 15C4.66789 15 4.5 15.1679 4.5 15.375C4.5 15.5821 4.66789 15.75 4.875 15.75C5.08211 15.75 5.25 15.5821 5.25 15.375C5.25 15.1679 5.08211 15 4.875 15" stroke="#0E1C28" stroke-width="1.5" stroke-linecap="round" stroke-linejoin="round"/>
<path d="M6.375 11.2531C6.16789 11.2531 6 11.4209 6 11.6281C6 11.8352 6.16789 12.0031 6.375 12.0031C6.58211 12.0031 6.75 11.8352 6.75 11.6281C6.75 11.4209 6.58211 11.2531 6.375 11.2531" stroke="#0E1C28" stroke-width="1.5" stroke-linecap="round" stroke-linejoin="round"/>
<path d="M19.125 15C18.9179 15 18.75 15.1679 18.75 15.375C18.75 15.5821 18.9179 15.75 19.125 15.75C19.3321 15.75 19.5 15.5821 19.5 15.375C19.5 15.1679 19.3321 15 19.125 15" stroke="#0E1C28" stroke-width="1.5" stroke-linecap="round" stroke-linejoin="round"/>
<path d="M17.625 11.2531C17.4179 11.2531 17.25 11.4209 17.25 11.6281C17.25 11.8352 17.4179 12.0031 17.625 12.0031C17.8321 12.0031 18 11.8352 18 11.6281C18 11.4209 17.8321 11.2531 17.625 11.2531" stroke="#0E1C28" stroke-width="1.5" stroke-linecap="round" stroke-linejoin="round"/>
<path d="M9.375 8.25305C9.16789 8.25305 9 8.42094 9 8.62805C9 8.83516 9.16789 9.00305 9.375 9.00305C9.58211 9.00305 9.75 8.83516 9.75 8.62805C9.75 8.42094 9.58211 8.25305 9.375 8.25305" stroke="#0E1C28" stroke-width="1.5" stroke-linecap="round" stroke-linejoin="round"/>
</svg>
