<svg width="24" height="25" viewBox="0 0 24 25" fill="none" xmlns="http://www.w3.org/2000/svg">
<path d="M9 15.2921V15.0071C9 13.3502 10.3431 12.0071 12 12.0071C13.6569 12.0071 15 13.3502 15 15.0071V15.2921" stroke="#0E1C28" stroke-width="1.5" stroke-linecap="round" stroke-linejoin="round"/>
<path d="M14.252 5.25708L12.002 12.0071" stroke="#0E1C28" stroke-width="1.5" stroke-linecap="round" stroke-linejoin="round"/>
<path d="M6.37695 7.50708C6.16985 7.50708 6.00195 7.67497 6.00195 7.88208C6.00195 8.08919 6.16985 8.25708 6.37695 8.25708C6.58406 8.25708 6.75195 8.08919 6.75195 7.88208C6.75195 7.67497 6.58406 7.50708 6.37695 7.50708V7.50708" stroke="#0E1C28" stroke-width="1.5" stroke-linecap="round" stroke-linejoin="round"/>
<path d="M19.127 11.2571C18.9198 11.2571 18.752 11.425 18.752 11.6321C18.752 11.8392 18.9198 12.0071 19.127 12.0071C19.3341 12.0071 19.502 11.8392 19.502 11.6321C19.502 11.425 19.3341 11.2571 19.127 11.2571V11.2571" stroke="#0E1C28" stroke-width="1.5" stroke-linecap="round" stroke-linejoin="round"/>
<path d="M17.627 7.50696C17.4752 7.50615 17.3378 7.597 17.2791 7.73707C17.2205 7.87713 17.252 8.03875 17.3591 8.14641C17.4662 8.25408 17.6277 8.28653 17.7681 8.22861C17.9084 8.17068 18 8.03382 18 7.88196C18 7.67486 17.8321 7.50696 17.625 7.50696V7.50696" stroke="#0E1C28" stroke-width="1.5" stroke-linecap="round" stroke-linejoin="round"/>
<path d="M9.37695 4.50708C9.16985 4.50708 9.00195 4.67497 9.00195 4.88208C9.00195 5.08919 9.16985 5.25708 9.37695 5.25708C9.58406 5.25708 9.75195 5.08919 9.75195 4.88208C9.75195 4.67497 9.58406 4.50708 9.37695 4.50708V4.50708" stroke="#0E1C28" stroke-width="1.5" stroke-linecap="round" stroke-linejoin="round"/>
<path d="M21.4311 18.142C15.8385 13.9619 8.16167 13.9619 2.56909 18.142" stroke="#0E1C28" stroke-width="1.5" stroke-linecap="round" stroke-linejoin="round"/>
<path fill-rule="evenodd" clip-rule="evenodd" d="M12 23.257C18.2132 23.257 23.25 18.2202 23.25 12.007C23.25 5.79382 18.2132 0.757019 12 0.757019C5.7868 0.757019 0.75 5.79382 0.75 12.007C0.75 18.2202 5.7868 23.257 12 23.257Z" stroke="#0E1C28" stroke-width="1.5" stroke-linecap="round" stroke-linejoin="round"/>
<path d="M4.87695 11.2571C4.66985 11.2571 4.50195 11.425 4.50195 11.6321C4.50195 11.8392 4.66985 12.0071 4.87695 12.0071C5.08406 12.0071 5.25195 11.8392 5.25195 11.6321C5.25195 11.425 5.08406 11.2571 4.87695 11.2571" stroke="#0E1C28" stroke-width="1.5" stroke-linecap="round" stroke-linejoin="round"/>
</svg>
