<svg width="24" height="24" viewBox="0 0 24 24" fill="none" xmlns="http://www.w3.org/2000/svg">
<path d="M1.75098 6.36808L22.292 2.00208" stroke="#0E1C28" stroke-width="1.5" stroke-linecap="round" stroke-linejoin="round"/>
<path fill-rule="evenodd" clip-rule="evenodd" d="M13.6001 0.78306L9.20005 1.71806C8.80982 1.80014 8.46832 2.03423 8.25103 2.36861C8.03374 2.70299 7.95854 3.11012 8.04205 3.50006L8.35405 4.96806L15.6901 3.40806L15.3781 1.94106C15.2959 1.55167 15.0624 1.21088 14.729 0.993694C14.3955 0.77651 13.9894 0.700739 13.6001 0.78306Z" stroke="#0E1C28" stroke-width="1.5" stroke-linecap="round" stroke-linejoin="round"/>
<path d="M10.751 18V10.5" stroke="#0E1C28" stroke-width="1.5" stroke-linecap="round" stroke-linejoin="round"/>
<path d="M15.251 18V10.5" stroke="#0E1C28" stroke-width="1.5" stroke-linecap="round" stroke-linejoin="round"/>
<path d="M18.6261 6H21.2511L19.8661 21.874C19.8014 22.6536 19.1484 23.2527 18.3661 23.25H7.6311C6.85108 23.2495 6.20158 22.6513 6.1371 21.874L5.1001 9.377" stroke="#0E1C28" stroke-width="1.5" stroke-linecap="round" stroke-linejoin="round"/>
</svg>
