<svg width="24" height="24" viewBox="0 0 24 24" fill="none" xmlns="http://www.w3.org/2000/svg">
<path fill-rule="evenodd" clip-rule="evenodd" d="M5.5 13C6.32843 13 7 12.3284 7 11.5C7 10.6716 6.32843 10 5.5 10C4.67157 10 4 10.6716 4 11.5C4 12.3284 4.67157 13 5.5 13Z" stroke="#0E1C28" stroke-width="1.5" stroke-linecap="round" stroke-linejoin="round"/>
<path fill-rule="evenodd" clip-rule="evenodd" d="M19.2998 13C20.1282 13 20.7998 12.3284 20.7998 11.5C20.7998 10.6716 20.1282 10 19.2998 10C18.4714 10 17.7998 10.6716 17.7998 11.5C17.7998 12.3284 18.4714 13 19.2998 13Z" stroke="#0E1C28" stroke-width="1.5" stroke-linecap="round" stroke-linejoin="round"/>
<path fill-rule="evenodd" clip-rule="evenodd" d="M12.3999 13C13.2283 13 13.8999 12.3284 13.8999 11.5C13.8999 10.6716 13.2283 10 12.3999 10C11.5715 10 10.8999 10.6716 10.8999 11.5C10.8999 12.3284 11.5715 13 12.3999 13Z" stroke="#0E1C28" stroke-width="1.5" stroke-linecap="round" stroke-linejoin="round"/>
</svg>
