<svg width="24" height="24" viewBox="0 0 24 24" fill="none" xmlns="http://www.w3.org/2000/svg">
<path fill-rule="evenodd" clip-rule="evenodd" d="M12.5 20.8C13.3284 20.8 14 20.1285 14 19.3C14 18.4716 13.3284 17.8 12.5 17.8C11.6716 17.8 11 18.4716 11 19.3C11 20.1285 11.6716 20.8 12.5 20.8Z" stroke="#0E1C28" stroke-width="1.5" stroke-linecap="round" stroke-linejoin="round"/>
<path fill-rule="evenodd" clip-rule="evenodd" d="M12.5 7C13.3284 7 14 6.32843 14 5.5C14 4.67157 13.3284 4 12.5 4C11.6716 4 11 4.67157 11 5.5C11 6.32843 11.6716 7 12.5 7Z" stroke="#0E1C28" stroke-width="1.5" stroke-linecap="round" stroke-linejoin="round"/>
<path fill-rule="evenodd" clip-rule="evenodd" d="M12.5 13.9C13.3284 13.9 14 13.2285 14 12.4C14 11.5716 13.3284 10.9 12.5 10.9C11.6716 10.9 11 11.5716 11 12.4C11 13.2285 11.6716 13.9 12.5 13.9Z" stroke="#0E1C28" stroke-width="1.5" stroke-linecap="round" stroke-linejoin="round"/>
</svg>
