<svg width="24" height="25" viewBox="0 0 24 25" fill="none" xmlns="http://www.w3.org/2000/svg">
<path fill-rule="evenodd" clip-rule="evenodd" d="M0.75 14.7921C0.75 14.252 1.18787 13.8141 1.728 13.8141H22.272C22.8121 13.8141 23.25 14.252 23.25 14.7921V23.2711C23.25 23.8112 22.8121 24.2491 22.272 24.2491H1.728C1.18787 24.2491 0.75 23.8112 0.75 23.2711V14.7921Z" stroke="#0E1C28" stroke-width="1.5" stroke-linecap="round" stroke-linejoin="round"/>
<path d="M2.25 13.814V7.97701C2.2533 7.43489 2.69488 6.99779 3.237 7.00001H11.625C11.935 6.99954 12.2271 7.1447 12.414 7.39201L13.6 9.24801H20.014C20.5565 9.24635 20.9978 9.6845 21 10.227V13.814" stroke="#0E1C28" stroke-width="1.5" stroke-linecap="round" stroke-linejoin="round"/>
<path d="M9.06494 16.748H14.9349" stroke="#0E1C28" stroke-width="1.5" stroke-linecap="round" stroke-linejoin="round"/>
<path d="M19.7369 6.24805V4.97706C19.7336 4.43494 19.2921 3.99784 18.7499 4.00006H13.5999L12.4139 2.14006C12.2271 1.89275 11.9349 1.74758 11.6249 1.74806H4.49994C4.23923 1.74699 3.98878 1.84954 3.80368 2.03314C3.61858 2.21674 3.514 2.46635 3.51294 2.72706V3.77006" stroke="#0E1C28" stroke-width="1.5" stroke-linecap="round" stroke-linejoin="round"/>
</svg>
