<svg width="24" height="24" viewBox="0 0 24 24" fill="none" xmlns="http://www.w3.org/2000/svg">
<path fill-rule="evenodd" clip-rule="evenodd" d="M12 23.25C18.2132 23.25 23.25 18.2132 23.25 12C23.25 5.7868 18.2132 0.75 12 0.75C5.7868 0.75 0.75 5.7868 0.75 12C0.75 18.2132 5.7868 23.25 12 23.25Z" stroke="#0E1C28" stroke-width="1.5" stroke-linecap="round" stroke-linejoin="round"/>
<path fill-rule="evenodd" clip-rule="evenodd" d="M7.07912 15.75C7.54103 15.7499 7.97716 15.5371 8.26138 15.173C8.5456 14.8089 8.64621 14.3341 8.53412 13.886L7.78412 10.886C7.61713 10.2184 7.01728 9.75008 6.32912 9.75H0.976119C0.132745 13.893 1.68427 18.1589 4.99212 20.792L6.00012 15.75H7.07912Z" stroke="#0E1C28" stroke-width="1.5" stroke-linecap="round" stroke-linejoin="round"/>
<path fill-rule="evenodd" clip-rule="evenodd" d="M20.9852 5.25H16.9212C16.2331 5.25008 15.6332 5.7184 15.4662 6.386L14.7162 9.386C14.6041 9.8341 14.7048 10.3089 14.989 10.673C15.2732 11.0371 15.7093 11.2499 16.1712 11.25H17.7502L18.5412 16C18.662 16.7233 19.288 17.2532 20.0212 17.253H21.9462C23.9856 13.4062 23.6108 8.72619 20.9852 5.253V5.25Z" stroke="#0E1C28" stroke-width="1.5" stroke-linecap="round" stroke-linejoin="round"/>
</svg>
