<svg width="24" height="24" viewBox="0 0 24 24" fill="none" xmlns="http://www.w3.org/2000/svg">
<path fill-rule="evenodd" clip-rule="evenodd" d="M12 15.75C15.3137 15.75 18 13.0637 18 9.75C18 6.43629 15.3137 3.75 12 3.75C8.68629 3.75 6 6.43629 6 9.75C6 13.0637 8.68629 15.75 12 15.75Z" stroke="#0E1C28" stroke-width="1.5" stroke-linecap="round" stroke-linejoin="round"/>
<path d="M6.80005 6.75098H8.25005C9.07848 6.75098 9.75005 7.42255 9.75005 8.25098V8.95098C9.75009 9.45249 10.0008 9.9208 10.418 10.199L11.376 10.838C11.7665 11.0975 12.0012 11.5352 12.0012 12.004C12.0012 12.4728 11.7665 12.9105 11.376 13.17L8.84505 14.854" stroke="#0E1C28" stroke-width="1.5" stroke-linecap="round" stroke-linejoin="round"/>
<path d="M17.2 6.75098H16.5C15.98 6.75082 15.497 7.01997 15.2236 7.46227C14.9502 7.90457 14.9254 8.45692 15.158 8.92198C15.585 9.77598 15.683 9.81698 15.948 9.97598L17.848 11.114" stroke="#0E1C28" stroke-width="1.5" stroke-linecap="round" stroke-linejoin="round"/>
<path fill-rule="evenodd" clip-rule="evenodd" d="M21 9.75C21 17.65 14.068 22.081 12.371 23.05C12.1407 23.1811 11.8583 23.1811 11.628 23.05C9.931 22.08 3 17.648 3 9.75C3 4.77944 7.02944 0.75 12 0.75C16.9706 0.75 21 4.77944 21 9.75V9.75Z" stroke="#0E1C28" stroke-width="1.5" stroke-linecap="round" stroke-linejoin="round"/>
</svg>
