<svg width="24" height="24" viewBox="0 0 24 24" fill="none" xmlns="http://www.w3.org/2000/svg">
<path fill-rule="evenodd" clip-rule="evenodd" d="M22.63 14.87L15 22.5L11.25 23.25L12 19.5L19.63 11.87C20.0265 11.4728 20.5648 11.2496 21.126 11.2496C21.6872 11.2496 22.2255 11.4728 22.622 11.87L22.63 11.878C23.0272 12.2745 23.2504 12.8127 23.2504 13.374C23.2504 13.9352 23.0272 14.4734 22.63 14.87V14.87Z" stroke="#0E1C28" stroke-width="1.5" stroke-linecap="round" stroke-linejoin="round"/>
<path d="M8.25 20.25H2.25C1.42157 20.25 0.75 19.5784 0.75 18.75V2.25C0.75 1.42157 1.42157 0.75 2.25 0.75H12.879C13.2765 0.750085 13.6578 0.907982 13.939 1.189L16.811 4.061C17.092 4.3422 17.2499 4.72345 17.25 5.121V8.25" stroke="#0E1C28" stroke-width="1.5" stroke-linecap="round" stroke-linejoin="round"/>
</svg>
