<svg width="24" height="24" viewBox="0 0 24 24" fill="none" xmlns="http://www.w3.org/2000/svg">
<path fill-rule="evenodd" clip-rule="evenodd" d="M23.1999 2.05403C23.2135 1.84703 23.1408 1.64364 22.9991 1.49212C22.8574 1.34059 22.6594 1.25441 22.4519 1.25403H1.49991C1.29238 1.25412 1.09415 1.34021 0.95241 1.4918C0.810668 1.6434 0.738078 1.84695 0.751914 2.05403C1.11335 7.08679 4.78034 11.2639 9.72391 12.274V22.149C9.72402 22.44 9.89237 22.7046 10.1558 22.828C10.4193 22.9513 10.7304 22.9112 10.9539 22.725L13.9539 20.225C14.1251 20.0828 14.2241 19.8716 14.2239 19.649V12.274C19.1692 11.2657 22.8383 7.08813 23.1999 2.05403Z" stroke="#0E1C28" stroke-width="1.5" stroke-linecap="round" stroke-linejoin="round"/>
</svg>
