<svg width="24" height="24" viewBox="0 0 24 24" fill="none" xmlns="http://www.w3.org/2000/svg">
<path d="M20.25 9.75V6.75C20.25 5.92157 19.5784 5.25 18.75 5.25H8.25V3.75C8.25 2.92157 7.57843 2.25 6.75 2.25H2.25C1.42157 2.25 0.75 2.92157 0.75 3.75V20.05C0.761668 20.8943 1.39131 21.6021 2.22854 21.712C3.06576 21.822 3.85677 21.3007 4.086 20.488L6.437 10.831C6.62351 10.1899 7.21131 9.74924 7.879 9.75H21.75C22.216 9.74984 22.6556 9.96629 22.9397 10.3357C23.2237 10.7052 23.3199 11.1857 23.2 11.636L21 20.636C20.825 21.2931 20.23 21.7502 19.55 21.75H2.447" stroke="#0E1C28" stroke-width="1.5" stroke-linecap="round" stroke-linejoin="round"/>
</svg>
