<svg width="24" height="24" viewBox="0 0 24 24" fill="none" xmlns="http://www.w3.org/2000/svg">
<path fill-rule="evenodd" clip-rule="evenodd" d="M11 16.985C15.1421 16.985 18.5 13.6271 18.5 9.48499C18.5 5.34285 15.1421 1.98499 11 1.98499C6.85786 1.98499 3.5 5.34285 3.5 9.48499C3.5 13.6271 6.85786 16.985 11 16.985Z" stroke="#0E1C28" stroke-width="1.5" stroke-linecap="round" stroke-linejoin="round"/>
<path d="M18.425 2.06104C22.5254 6.16175 22.5252 12.8101 18.4245 16.9105C14.3237 21.011 7.67539 21.0107 3.57495 16.91" stroke="#0E1C28" stroke-width="1.5" stroke-linecap="round" stroke-linejoin="round"/>
<path d="M19.4848 1L18.4248 2.061" stroke="#0E1C28" stroke-width="1.5" stroke-linecap="round" stroke-linejoin="round"/>
<path d="M3.57489 16.91L2.51489 17.971" stroke="#0E1C28" stroke-width="1.5" stroke-linecap="round" stroke-linejoin="round"/>
<path d="M11 19.985V22.985" stroke="#0E1C28" stroke-width="1.5" stroke-linecap="round" stroke-linejoin="round"/>
<path d="M5 22.985H17" stroke="#0E1C28" stroke-width="1.5" stroke-linecap="round" stroke-linejoin="round"/>
<path d="M4.12378 6.48499H5.74978C6.57821 6.48499 7.24978 7.15656 7.24978 7.98499V9.61399C7.2496 10.0119 7.40752 10.3935 7.68878 10.675L8.84378 11.83C9.24575 12.2316 9.38629 12.8259 9.20678 13.365L8.89778 14.291C8.80118 14.5802 8.61875 14.8331 8.37478 15.016L7.15878 15.928" stroke="#0E1C28" stroke-width="1.5" stroke-linecap="round" stroke-linejoin="round"/>
<path d="M13.3999 2.37903C12.9929 2.70403 12.5589 3.04103 12.1739 3.33803C11.5237 3.83884 11.3967 4.76927 11.8889 5.42603L12.7999 6.63503C13.0832 7.01274 13.5278 7.23503 13.9999 7.23503H14.8789C15.2766 7.23538 15.6579 7.39364 15.9389 7.67503L17.0939 8.83003C17.4602 9.1961 17.9895 9.34731 18.4939 9.23003" stroke="#0E1C28" stroke-width="1.5" stroke-linecap="round" stroke-linejoin="round"/>
</svg>
