<svg width="24" height="24" viewBox="0 0 24 24" fill="none" xmlns="http://www.w3.org/2000/svg">
<path d="M11.0159 11.859L15.1829 7.69202" stroke="#0E1C28" stroke-width="1.5" stroke-linecap="round" stroke-linejoin="round"/>
<path fill-rule="evenodd" clip-rule="evenodd" d="M15.1829 7.692L15.7509 3.942L18.9989 0.75L19.5009 3.374L22.1249 3.876L18.9329 7.124L15.1829 7.692V7.692Z" stroke="#0E1C28" stroke-width="1.5" stroke-linecap="round" stroke-linejoin="round"/>
<path d="M21.0549 9.51296C22.1427 13.6364 20.4245 17.9883 16.8132 20.2565C13.2018 22.5247 8.53552 22.1827 5.29345 19.4123C2.05139 16.6419 0.985967 12.0859 2.66326 8.16513C4.34055 4.24431 8.3713 1.86848 12.6139 2.29996" stroke="#0E1C28" stroke-width="1.5" stroke-linecap="round" stroke-linejoin="round"/>
<path d="M16.7219 10.737C17.2612 12.9114 16.3616 15.1884 14.4818 16.4071C12.6021 17.6257 10.1562 17.5176 8.39127 16.1379C6.62635 14.7581 5.93114 12.4106 6.66012 10.2923C7.38909 8.174 9.3817 6.75145 11.6219 6.75" stroke="#0E1C28" stroke-width="1.5" stroke-linecap="round" stroke-linejoin="round"/>
<path d="M6.51587 20.25L5.76587 23.25" stroke="#0E1C28" stroke-width="1.5" stroke-linecap="round" stroke-linejoin="round"/>
<path d="M17.0159 20.25L17.7659 23.25" stroke="#0E1C28" stroke-width="1.5" stroke-linecap="round" stroke-linejoin="round"/>
</svg>
