<svg width="25" height="25" viewBox="0 0 25 25" fill="none" xmlns="http://www.w3.org/2000/svg">
<path fill-rule="evenodd" clip-rule="evenodd" d="M19.1 15.7H14.47V11.53H24.25V13.5899C23.9575 18.9392 19.9397 23.3432 14.6397 24.1241C9.33968 24.905 4.22242 21.847 2.39944 16.8095C0.576451 11.772 2.55162 6.14733 7.12395 3.35562C11.6963 0.56392 17.602 1.37678 21.25 5.29995L17.85 8.42995C16.5957 7.08597 14.8384 6.32506 13 6.32995C9.67329 6.3304 6.8555 8.78219 6.39513 12.0769C5.93476 15.3717 7.9726 18.5019 11.1718 19.4142C14.371 20.3266 17.7534 18.742 19.1 15.7V15.7Z" stroke="#0E1C28" stroke-width="1.5" stroke-linecap="round" stroke-linejoin="round"/>
<path d="M7.18009 9.70997L3.59009 6.83997" stroke="#0E1C28" stroke-width="1.5" stroke-linecap="round" stroke-linejoin="round"/>
<path d="M7.19 16.3199L3.75 19.4199" stroke="#0E1C28" stroke-width="1.5" stroke-linecap="round" stroke-linejoin="round"/>
<path d="M16.9202 18.3899L19.9902 21.8399" stroke="#0E1C28" stroke-width="1.5" stroke-linecap="round" stroke-linejoin="round"/>
</svg>
