<svg width="25" height="24" viewBox="0 0 25 24" fill="none" xmlns="http://www.w3.org/2000/svg">
<path d="M2.78296 21L21.533 3" stroke="#0E1C28" stroke-width="1.5" stroke-linecap="round" stroke-linejoin="round"/>
<path d="M8.96411 19.051C9.94693 19.3562 10.971 19.5077 12.0001 19.5C16.1001 19.569 20.2581 16.687 22.8241 13.863C23.3939 13.2304 23.3939 12.2696 22.8241 11.637C21.8945 10.6172 20.8647 9.69356 19.7501 8.88" stroke="#0E1C28" stroke-width="1.5" stroke-linecap="round" stroke-linejoin="round"/>
<path d="M14.4131 6.28195C13.624 6.0856 12.8131 5.99083 12.0001 5.99995C7.96907 5.93295 3.80007 8.75195 1.17907 11.635C0.609255 12.2676 0.609255 13.2283 1.17907 13.861C1.976 14.7333 2.84581 15.5363 3.77907 16.261" stroke="#0E1C28" stroke-width="1.5" stroke-linecap="round" stroke-linejoin="round"/>
<path d="M8.25 12.75C8.24973 11.7554 8.64474 10.8014 9.34806 10.0981C10.0514 9.39474 11.0054 8.99973 12 9" stroke="#0E1C28" stroke-width="1.5" stroke-linecap="round" stroke-linejoin="round"/>
<path d="M15.75 12.749V12.749C15.7503 13.7438 15.3553 14.6978 14.652 15.4013C13.9487 16.1048 12.9947 16.5 12 16.5" stroke="#0E1C28" stroke-width="1.5" stroke-linecap="round" stroke-linejoin="round"/>
</svg>
