<svg width="24" height="25" viewBox="0 0 24 25" fill="none" xmlns="http://www.w3.org/2000/svg">
<path fill-rule="evenodd" clip-rule="evenodd" d="M4.75 2.49805C4.75 2.08383 5.08579 1.74805 5.5 1.74805H19C19.4142 1.74805 19.75 2.08383 19.75 2.49805V5.49805C19.75 5.91226 19.4142 6.24805 19 6.24805H5.5C5.08579 6.24805 4.75 5.91226 4.75 5.49805V2.49805Z" stroke="#0E1C28" stroke-width="1.5" stroke-linecap="round" stroke-linejoin="round"/>
<path d="M12.25 6.24805V19.748" stroke="#0E1C28" stroke-width="1.5" stroke-linecap="round" stroke-linejoin="round"/>
<path d="M4.75 19.748V15.248C4.75 14.4196 5.42157 13.748 6.25 13.748H18.25C19.0784 13.748 19.75 14.4196 19.75 15.248V19.748" stroke="#0E1C28" stroke-width="1.5" stroke-linecap="round" stroke-linejoin="round"/>
<path fill-rule="evenodd" clip-rule="evenodd" d="M4.75 24.248C5.99264 24.248 7 23.2407 7 21.998C7 20.7554 5.99264 19.748 4.75 19.748C3.50736 19.748 2.5 20.7554 2.5 21.998C2.5 23.2407 3.50736 24.248 4.75 24.248Z" stroke="#0E1C28" stroke-width="1.5" stroke-linecap="round" stroke-linejoin="round"/>
<path fill-rule="evenodd" clip-rule="evenodd" d="M12.25 24.248C13.4926 24.248 14.5 23.2407 14.5 21.998C14.5 20.7554 13.4926 19.748 12.25 19.748C11.0074 19.748 10 20.7554 10 21.998C10 23.2407 11.0074 24.248 12.25 24.248Z" stroke="#0E1C28" stroke-width="1.5" stroke-linecap="round" stroke-linejoin="round"/>
<path fill-rule="evenodd" clip-rule="evenodd" d="M19.75 24.248C20.9926 24.248 22 23.2407 22 21.998C22 20.7554 20.9926 19.748 19.75 19.748C18.5074 19.748 17.5 20.7554 17.5 21.998C17.5 23.2407 18.5074 24.248 19.75 24.248Z" stroke="#0E1C28" stroke-width="1.5" stroke-linecap="round" stroke-linejoin="round"/>
</svg>
