<svg width="24" height="24" viewBox="0 0 24 24" fill="none" xmlns="http://www.w3.org/2000/svg">
<path fill-rule="evenodd" clip-rule="evenodd" d="M18.4941 11.575L16.2171 9.29998L18.3381 7.17798L20.6151 9.45498C21.2036 10.0234 22.1392 10.0153 22.7178 9.43671C23.2964 8.85811 23.3045 7.92255 22.7361 7.33398L20.4601 5.05598L21.5201 3.99998C22.1071 3.41456 22.1085 2.46406 21.5231 1.87698C20.9376 1.2899 19.9871 1.28856 19.4001 1.87398L8.63806 12.635C6.34514 11.3962 3.49056 12.0274 1.93367 14.1174C0.376776 16.2074 0.589112 19.1232 2.43237 20.9656C4.27563 22.808 7.19153 23.0189 9.2808 21.4611C11.3701 19.9032 11.9999 17.0483 10.7601 14.756L14.1001 11.42L16.3731 13.7C16.7521 14.0789 17.3045 14.2267 17.8222 14.0879C18.3398 13.9491 18.7441 13.5446 18.8827 13.0269C19.0213 12.5092 18.8731 11.9569 18.4941 11.578V11.575Z" stroke="#0E1C28" stroke-width="1.5" stroke-linecap="round" stroke-linejoin="round"/>
<path fill-rule="evenodd" clip-rule="evenodd" d="M6.1521 19.1179C7.18763 19.1179 8.0271 18.2785 8.0271 17.2429C8.0271 16.2074 7.18763 15.3679 6.1521 15.3679C5.11657 15.3679 4.2771 16.2074 4.2771 17.2429C4.2771 18.2785 5.11657 19.1179 6.1521 19.1179Z" stroke="#0E1C28" stroke-width="1.5" stroke-linecap="round" stroke-linejoin="round"/>
</svg>
