<svg width="24" height="24" viewBox="0 0 24 24" fill="none" xmlns="http://www.w3.org/2000/svg">
<path d="M4.5 1.35303H12L22.5 11.853" stroke="#0E1C28" stroke-width="1.5" stroke-linecap="round" stroke-linejoin="round"/>
<path fill-rule="evenodd" clip-rule="evenodd" d="M9.129 4.35303H3C2.17157 4.35303 1.5 5.0246 1.5 5.85303V11.981C1.49982 12.3789 1.65774 12.7606 1.939 13.042L11.1 22.205C11.4606 22.5656 11.9797 22.7182 12.4781 22.6102C12.9765 22.5023 13.3859 22.1485 13.565 21.671L15 17.853L18.819 16.42C19.2965 16.2409 19.6502 15.8315 19.7582 15.3332C19.8662 14.8348 19.7135 14.3157 19.353 13.955L10.189 4.79203C9.9078 4.51101 9.52655 4.35311 9.129 4.35303Z" stroke="#0E1C28" stroke-width="1.5" stroke-linecap="round" stroke-linejoin="round"/>
<path d="M6 8.47803C5.79289 8.47803 5.625 8.64592 5.625 8.85303C5.625 9.06014 5.79289 9.22803 6 9.22803C6.20711 9.22803 6.375 9.06014 6.375 8.85303C6.37527 8.75349 6.33584 8.65795 6.26546 8.58757C6.19508 8.51719 6.09954 8.47776 6 8.47803" stroke="#0E1C28" stroke-width="1.5" stroke-linecap="round" stroke-linejoin="round"/>
</svg>
