<svg width="24" height="24" viewBox="0 0 24 24" fill="none" xmlns="http://www.w3.org/2000/svg">
<path fill-rule="evenodd" clip-rule="evenodd" d="M1.06104 2.56006V8.81706C1.06094 9.6125 1.37675 10.3754 1.93904 10.9381L13.5 22.5001C14.0858 23.0856 15.0353 23.0856 15.621 22.5001L22.5 15.6201C23.0856 15.0343 23.0856 14.0848 22.5 13.4991L10.939 1.93806C10.3764 1.37578 9.61348 1.05996 8.81804 1.06006H2.56104C1.73261 1.06006 1.06104 1.73163 1.06104 2.56006Z" stroke="#0E1C28" stroke-width="1.5" stroke-linecap="round" stroke-linejoin="round"/>
<path fill-rule="evenodd" clip-rule="evenodd" d="M6.31104 7.81006C7.13946 7.81006 7.81104 7.13849 7.81104 6.31006C7.81104 5.48163 7.13946 4.81006 6.31104 4.81006C5.48261 4.81006 4.81104 5.48163 4.81104 6.31006C4.81104 7.13849 5.48261 7.81006 6.31104 7.81006Z" stroke="#0E1C28" stroke-width="1.5" stroke-linecap="round" stroke-linejoin="round"/>
</svg>
