<svg width="24" height="24" viewBox="0 0 24 24" fill="none" xmlns="http://www.w3.org/2000/svg">
<path d="M0.75 23.25L7.28 18.026C7.89993 17.5304 8.69101 17.3006 9.48 17.387L14.426 17.936C14.8018 17.9783 15.1822 17.9488 15.547 17.849L23.247 15.749" stroke="#0E1C28" stroke-width="1.5" stroke-linecap="round" stroke-linejoin="round"/>
<path d="M0.75 17.25L7.537 13.177C8.00345 12.8973 8.53714 12.7497 9.081 12.75H14.35C14.7784 12.7498 15.2019 12.6581 15.592 12.481L23.25 9" stroke="#0E1C28" stroke-width="1.5" stroke-linecap="round" stroke-linejoin="round"/>
<path d="M0.75 11.25L8.8 7.226C9.41647 6.91783 10.1202 6.83131 10.793 6.981L15 7.917C15.94 8.12576 16.9232 7.87059 17.643 7.231L23.243 2.25V23.25H0.75V0.75" stroke="#0E1C28" stroke-width="1.5" stroke-linecap="round" stroke-linejoin="round"/>
</svg>
