<svg width="25" height="24" viewBox="0 0 25 24" fill="none" xmlns="http://www.w3.org/2000/svg">
<path d="M5.66977 22.63V23.38C6.08398 23.38 6.41977 23.0442 6.41977 22.63H5.66977ZM0.809766 22.63H0.0597656C0.0597656 23.0442 0.395552 23.38 0.809766 23.38V22.63ZM0.809766 8.70001V7.95001C0.395552 7.95001 0.0597656 8.28579 0.0597656 8.70001H0.809766ZM5.66977 8.70001H6.41977C6.41977 8.28579 6.08398 7.95001 5.66977 7.95001V8.70001ZM15.7598 13.24V13.99C16.174 13.99 16.5098 13.6542 16.5098 13.24H15.7598ZM13.6198 22.63V23.38C14.034 23.38 14.3698 23.0442 14.3698 22.63H13.6198ZM8.50977 22.63H7.75977C7.75977 23.0442 8.09555 23.38 8.50977 23.38V22.63ZM8.50977 8.70001V7.95001C8.09555 7.95001 7.75977 8.28579 7.75977 8.70001H8.50977ZM13.6198 8.70001H14.3698C14.3698 8.28579 14.034 7.95001 13.6198 7.95001V8.70001ZM13.6198 10.29H12.8698C12.8698 10.5821 13.0393 10.8476 13.3043 10.9704C13.5693 11.0933 13.8814 11.0511 14.1044 10.8624L13.6198 10.29ZM17.8998 8.69V7.93994L17.89 7.94007L17.8998 8.69ZM23.2698 22.63V23.38C23.684 23.38 24.0198 23.0442 24.0198 22.63H23.2698ZM17.8998 22.63H17.1498C17.1498 23.0442 17.4856 23.38 17.8998 23.38V22.63ZM17.8998 15.38L17.1498 15.3765V15.38H17.8998ZM15.7598 13.23L15.7598 12.48C15.3455 12.48 15.0098 12.8158 15.0098 13.23H15.7598ZM5.75977 3.88H6.50977C6.50977 3.46579 6.17398 3.13 5.75977 3.13V3.88ZM3.25977 1.38L3.26577 0.630005H3.25977V1.38ZM5.73977 3.88L4.98977 3.87998C4.98976 4.0789 5.06877 4.26967 5.20943 4.41033C5.35008 4.55098 5.54085 4.63 5.73977 4.63V3.88ZM5.66977 21.88H0.809766V23.38H5.66977V21.88ZM1.55977 22.63V8.70001H0.0597656V22.63H1.55977ZM0.809766 9.45H5.66977V7.95001H0.809766V9.45ZM4.91977 8.70001V22.63H6.41977V8.70001H4.91977ZM15.7598 12.49C14.1637 12.49 12.8698 13.7839 12.8698 15.38H14.3698C14.3698 14.6123 14.9921 13.99 15.7598 13.99V12.49ZM12.8698 15.38V22.63H14.3698V15.38H12.8698ZM13.6198 21.88H8.50977V23.38H13.6198V21.88ZM9.25977 22.63V8.70001H7.75977V22.63H9.25977ZM8.50977 9.45H13.6198V7.95001H8.50977V9.45ZM12.8698 8.70001V10.29H14.3698V8.70001H12.8698ZM14.1044 10.8624C15.1692 9.96097 16.5145 9.45807 17.9095 9.43994L17.89 7.94007C16.1468 7.96272 14.4658 8.59114 13.1352 9.71758L14.1044 10.8624ZM17.8998 9.44C19.2855 9.44 20.4065 9.94565 21.1954 10.9003C21.9978 11.8712 22.5198 13.3849 22.5198 15.5H24.0198C24.0198 13.1551 23.4418 11.2638 22.3516 9.94473C21.2481 8.60936 19.684 7.94 17.8998 7.94V9.44ZM22.5198 15.5V22.63H24.0198V15.5H22.5198ZM23.2698 21.88H17.8998V23.38H23.2698V21.88ZM18.6498 22.63V15.38H17.1498V22.63H18.6498ZM18.6498 15.3835C18.6534 14.6147 18.3505 13.8761 17.8081 13.3312L16.745 14.3894C17.0058 14.6515 17.1515 15.0067 17.1498 15.3765L18.6498 15.3835ZM17.8081 13.3312C17.2657 12.7863 16.5286 12.48 15.7598 12.48L15.7598 13.98C16.1296 13.98 16.4841 14.1273 16.745 14.3894L17.8081 13.3312ZM15.0098 13.23V13.24H16.5098V13.23H15.0098ZM5.00977 3.88C5.00977 4.8465 4.22626 5.63 3.25977 5.63V7.13C5.05469 7.13 6.50977 5.67493 6.50977 3.88H5.00977ZM3.25977 5.63C2.29327 5.63 1.50977 4.8465 1.50977 3.88H0.00976562C0.00976562 5.67493 1.46484 7.13 3.25977 7.13V5.63ZM1.50977 3.88C1.50977 2.91351 2.29327 2.13 3.25977 2.13V0.630005C1.46484 0.630005 0.00976562 2.08508 0.00976562 3.88H1.50977ZM3.25377 2.12998C4.21479 2.13767 4.9898 2.91892 4.98977 3.87998L6.48977 3.88003C6.48982 2.09521 5.05053 0.644307 3.26577 0.630029L3.25377 2.12998ZM5.73977 4.63H5.75977V3.13H5.73977V4.63Z" fill="#0E1C28"/>
</svg>
