<svg width="24" height="26" viewBox="0 0 24 26" fill="none" xmlns="http://www.w3.org/2000/svg">
<path d="M6.75 18.249L17.25 7.74902" stroke="#0E1C28" stroke-width="1.5" stroke-linecap="round" stroke-linejoin="round"/>
<path d="M7.73489 13.0211C6.46269 12.9478 5.21964 13.4207 4.31789 14.3211L2.06789 16.5711C0.931067 17.7079 0.487088 19.3649 0.903193 20.9178C1.3193 22.4707 2.53227 23.6837 4.08519 24.0998C5.63812 24.5159 7.29507 24.0719 8.43189 22.9351L10.6819 20.6851C11.5823 19.7833 12.0552 18.5403 11.9819 17.2681" stroke="#0E1C28" stroke-width="1.5" stroke-linecap="round" stroke-linejoin="round"/>
<path d="M16.265 12.976C17.5372 13.0492 18.7802 12.5763 19.682 11.676L21.932 9.42603C23.0688 8.28921 23.5128 6.63226 23.0967 5.07933C22.6806 3.52641 21.4676 2.31344 19.9147 1.89733C18.3618 1.48123 16.7048 1.92521 15.568 3.06203L13.318 5.31203C12.4198 6.21486 11.9488 7.45764 12.023 8.72903" stroke="#0E1C28" stroke-width="1.5" stroke-linecap="round" stroke-linejoin="round"/>
</svg>
