<svg width="24" height="24" viewBox="0 0 24 24" fill="none" xmlns="http://www.w3.org/2000/svg">
<path d="M4.807 13.042L0.75 18L4.5 18.75L6 23.25L9.944 16.992" stroke="#0E1C28" stroke-width="1.5" stroke-linecap="round" stroke-linejoin="round"/>
<path d="M19.1929 13.042L23.2499 18L19.4999 18.75L17.9999 23.25L14.0559 16.992" stroke="#0E1C28" stroke-width="1.5" stroke-linecap="round" stroke-linejoin="round"/>
<path fill-rule="evenodd" clip-rule="evenodd" d="M12 17.25C16.5563 17.25 20.25 13.5563 20.25 9C20.25 4.44365 16.5563 0.75 12 0.75C7.44365 0.75 3.75 4.44365 3.75 9C3.75 13.5563 7.44365 17.25 12 17.25Z" stroke="#0E1C28" stroke-width="1.5" stroke-linecap="round" stroke-linejoin="round"/>
<path fill-rule="evenodd" clip-rule="evenodd" d="M12.531 4.29199L13.779 6.74999H15.906C16.1457 6.74413 16.3644 6.88581 16.457 7.1069C16.5497 7.32799 16.4973 7.58326 16.325 7.74999L14.372 9.66799L15.454 12.153C15.5518 12.3864 15.4896 12.6561 15.2995 12.8231C15.1094 12.9902 14.8339 13.0171 14.615 12.89L12 11.419L9.38503 12.89C9.1662 13.0171 8.89066 12.9902 8.70054 12.8231C8.51043 12.6561 8.44823 12.3864 8.54603 12.153L9.62803 9.66799L7.67503 7.74599C7.5028 7.57926 7.4504 7.32399 7.54304 7.1029C7.63567 6.88181 7.85439 6.74013 8.09403 6.74599H10.221L11.47 4.29199C11.5739 4.09533 11.7781 3.97229 12.0005 3.97229C12.223 3.97229 12.4271 4.09533 12.531 4.29199Z" stroke="#0E1C28" stroke-width="1.5" stroke-linecap="round" stroke-linejoin="round"/>
</svg>
