<svg width="24" height="24" viewBox="0 0 24 24" fill="none" xmlns="http://www.w3.org/2000/svg">
<path d="M4.807 13.042L0.75 18L4.5 18.75L6 23.25L9.944 16.992" stroke="#0E1C28" stroke-width="1.5" stroke-linecap="round" stroke-linejoin="round"/>
<path d="M19.1929 13.042L23.2499 18L19.4999 18.75L17.9999 23.25L14.0559 16.992" stroke="#0E1C28" stroke-width="1.5" stroke-linecap="round" stroke-linejoin="round"/>
<path d="M20.2499 9.00005C20.2481 12.692 17.7925 15.9329 14.2387 16.9335C10.6849 17.934 6.89909 16.4505 4.97131 13.3017C3.04353 10.153 3.44363 6.10666 5.95074 3.39647C8.45785 0.686274 12.4609 -0.0271502 15.7499 1.65005" stroke="#0E1C28" stroke-width="1.5" stroke-linecap="round" stroke-linejoin="round"/>
<path d="M18 5.25L12.53 10.72C12.3895 10.8607 12.1988 10.9398 12 10.9398C11.8012 10.9398 11.6105 10.8607 11.47 10.72L9.75 9" stroke="#0E1C28" stroke-width="1.5" stroke-linecap="round" stroke-linejoin="round"/>
</svg>
