<svg width="24" height="24" viewBox="0 0 24 24" fill="none" xmlns="http://www.w3.org/2000/svg">
<path fill-rule="evenodd" clip-rule="evenodd" d="M12 23.25C16.5563 23.25 20.25 19.5563 20.25 15C20.25 10.4437 16.5563 6.75 12 6.75C7.44365 6.75 3.75 10.4437 3.75 15C3.75 19.5563 7.44365 23.25 12 23.25Z" stroke="#0E1C28" stroke-width="1.5" stroke-linecap="round" stroke-linejoin="round"/>
<path fill-rule="evenodd" clip-rule="evenodd" d="M12.531 10.292L13.779 12.75H15.906C16.1457 12.7442 16.3644 12.8859 16.457 13.107C16.5497 13.328 16.4973 13.5833 16.325 13.75L14.372 15.672L15.454 18.157C15.5518 18.3904 15.4896 18.6602 15.2995 18.8272C15.1094 18.9942 14.8339 19.0211 14.615 18.894L12 17.419L9.38503 18.89C9.1662 19.0171 8.89066 18.9902 8.70054 18.8232C8.51043 18.6562 8.44823 18.3864 8.54603 18.153L9.62803 15.668L7.67503 13.746C7.5028 13.5793 7.4504 13.324 7.54304 13.103C7.63567 12.8819 7.85439 12.7402 8.09403 12.746H10.221L11.47 10.288C11.5747 10.0918 11.7793 9.9695 12.0017 9.97034C12.2242 9.97118 12.4279 10.095 12.531 10.292Z" stroke="#0E1C28" stroke-width="1.5" stroke-linecap="round" stroke-linejoin="round"/>
<path d="M17.25 8.636L20.25 0.75H3.75L6.75 8.636" stroke="#0E1C28" stroke-width="1.5" stroke-linecap="round" stroke-linejoin="round"/>
<path d="M10.13 6.963L9 0.75" stroke="#0E1C28" stroke-width="1.5" stroke-linecap="round" stroke-linejoin="round"/>
<path d="M13.8701 6.963L15.0001 0.75" stroke="#0E1C28" stroke-width="1.5" stroke-linecap="round" stroke-linejoin="round"/>
</svg>
