<svg width="24" height="24" viewBox="0 0 24 24" fill="none" xmlns="http://www.w3.org/2000/svg">
<path d="M18.406 17.3929C21.333 17.9729 23.25 18.9399 23.25 20.0349C23.25 21.8109 18.213 23.2499 12 23.2499C5.787 23.2499 0.75 21.8109 0.75 20.0349C0.75 18.9429 2.658 17.9779 5.574 17.3969" stroke="#0E1C28" stroke-width="1.5" stroke-linecap="round" stroke-linejoin="round"/>
<path fill-rule="evenodd" clip-rule="evenodd" d="M18.75 7.5C18.75 10.75 13.618 18.027 12.304 19.836C12.2335 19.9332 12.1206 19.9907 12.0005 19.9907C11.8804 19.9907 11.7675 19.9332 11.697 19.836C10.383 18.027 5.25 10.75 5.25 7.5C5.25 3.77208 8.27208 0.75 12 0.75C15.7279 0.75 18.75 3.77208 18.75 7.5Z" stroke="#0E1C28" stroke-width="1.5" stroke-linecap="round" stroke-linejoin="round"/>
<path d="M13.821 5.25H11.2C10.5573 5.25045 10.0052 5.70639 9.88327 6.33734C9.76133 6.96828 10.1038 7.59712 10.7 7.837L13.355 8.662C13.9525 8.90104 14.2962 9.53066 14.1741 10.1626C14.0521 10.7945 13.4985 11.2507 12.855 11.25H9.69995" stroke="#0E1C28" stroke-width="1.5" stroke-linecap="round" stroke-linejoin="round"/>
<path d="M11.946 5.25V3.75" stroke="#0E1C28" stroke-width="1.5" stroke-linecap="round" stroke-linejoin="round"/>
<path d="M11.946 12.75V11.25" stroke="#0E1C28" stroke-width="1.5" stroke-linecap="round" stroke-linejoin="round"/>
</svg>
