<svg width="24" height="25" viewBox="0 0 24 25" fill="none" xmlns="http://www.w3.org/2000/svg">
<path fill-rule="evenodd" clip-rule="evenodd" d="M4.25 24.229L12.75 10.729C12.9887 10.4183 13.3582 10.2362 13.75 10.2362C14.1418 10.2362 14.5113 10.4183 14.75 10.729L23.25 24.229H4.25Z" stroke="#0E1C28" stroke-width="1.5" stroke-linecap="round" stroke-linejoin="round"/>
<path d="M4.25 24.229H0.75L4.5 17.479L6.675 20.379" stroke="#0E1C28" stroke-width="1.5" stroke-linecap="round" stroke-linejoin="round"/>
<path d="M8.71094 17.144L11.0479 19.135C11.4449 19.471 12.0331 19.4467 12.4009 19.079L13.0429 18.437C13.4334 18.0467 14.0664 18.0467 14.4569 18.437L15.0989 19.079C15.4668 19.4467 16.055 19.471 16.4519 19.135L18.8049 17.169" stroke="#0E1C28" stroke-width="1.5" stroke-linecap="round" stroke-linejoin="round"/>
<path d="M13.5 10.267V1.729" stroke="#0E1C28" stroke-width="1.5" stroke-linecap="round" stroke-linejoin="round"/>
<path d="M13.5 1.729H17.25V3.229H21.75L20.25 5.479L21.75 7.729H17.25V6.979H13.5" stroke="#0E1C28" stroke-width="1.5" stroke-linecap="round" stroke-linejoin="round"/>
</svg>
