<svg width="24" height="24" viewBox="0 0 24 24" fill="none" xmlns="http://www.w3.org/2000/svg">
<path fill-rule="evenodd" clip-rule="evenodd" d="M0.75 3.62895V20.3709C0.749985 20.6495 0.904347 20.9051 1.15088 21.0348C1.39741 21.1644 1.69549 21.1468 1.925 20.9889L14.1 12.6179C14.3039 12.4783 14.4258 12.2471 14.4258 11.9999C14.4258 11.7528 14.3039 11.5216 14.1 11.3819L1.925 3.01095C1.69549 2.8531 1.39741 2.83546 1.15088 2.96512C0.904347 3.09479 0.749985 3.3504 0.75 3.62895Z" stroke="#0E1C28" stroke-width="1.5" stroke-linecap="round" stroke-linejoin="round"/>
<path fill-rule="evenodd" clip-rule="evenodd" d="M18.75 3.75C18.75 2.92157 19.4216 2.25 20.25 2.25H21.75C22.5784 2.25 23.25 2.92157 23.25 3.75V20.25C23.25 21.0784 22.5784 21.75 21.75 21.75H20.25C19.4216 21.75 18.75 21.0784 18.75 20.25V3.75Z" stroke="#0E1C28" stroke-width="1.5" stroke-linecap="round" stroke-linejoin="round"/>
</svg>
