<svg width="24" height="24" viewBox="0 0 24 24" fill="none" xmlns="http://www.w3.org/2000/svg">
<path fill-rule="evenodd" clip-rule="evenodd" d="M0.988037 22.9419C0.988037 22.9419 2.40004 21.4849 2.55004 17.7299C2.52979 16.7064 2.92227 15.7178 3.63904 14.9869C5.11659 13.6101 7.41909 13.6508 8.84715 15.0788C10.2752 16.5069 10.3158 18.8094 8.93904 20.2869C6.90367 22.4525 3.91619 23.45 0.988037 22.9419H0.988037Z" stroke="#0E1C28" stroke-width="1.5" stroke-linecap="round" stroke-linejoin="round"/>
<path d="M10.8171 10.4969L13.4591 13.1389" stroke="#0E1C28" stroke-width="1.5" stroke-linecap="round" stroke-linejoin="round"/>
<path fill-rule="evenodd" clip-rule="evenodd" d="M22.2 1.72896C21.6533 1.18267 20.9033 0.889529 20.131 0.920289C19.3588 0.95105 18.6345 1.30292 18.133 1.89096L7.69995 14.163C8.65762 14.5514 9.41266 15.3177 9.78695 16.281L22.039 5.79996C22.6281 5.29824 22.9807 4.57299 23.0113 3.79973C23.0419 3.02646 22.7477 2.27564 22.2 1.72896V1.72896Z" stroke="#0E1C28" stroke-width="1.5" stroke-linecap="round" stroke-linejoin="round"/>
</svg>
