<svg width="25" height="24" viewBox="0 0 25 24" fill="none" xmlns="http://www.w3.org/2000/svg">
<path d="M9.24609 19.5L13.2161 15.53C13.3568 15.3892 13.5476 15.3102 13.7466 15.3102C13.9456 15.3102 14.1364 15.3892 14.2771 15.53L16.2161 17.469C16.3568 17.6098 16.5476 17.6888 16.7466 17.6888C16.9456 17.6888 17.1364 17.6098 17.2771 17.469L21.2461 13.5" stroke="#0E1C28" stroke-width="1.5" stroke-linecap="round" stroke-linejoin="round"/>
<path fill-rule="evenodd" clip-rule="evenodd" d="M1.74609 2.25C1.74609 1.42157 2.41767 0.75 3.24609 0.75H22.7461C23.5745 0.75 24.2461 1.42157 24.2461 2.25V21.75C24.2461 22.5784 23.5745 23.25 22.7461 23.25H3.24609C2.41767 23.25 1.74609 22.5784 1.74609 21.75V2.25Z" stroke="#0E1C28" stroke-width="1.5" stroke-linecap="round" stroke-linejoin="round"/>
<path fill-rule="evenodd" clip-rule="evenodd" d="M9.24609 12.75C11.7314 12.75 13.7461 10.7353 13.7461 8.25C13.7461 5.76472 11.7314 3.75 9.24609 3.75C6.76081 3.75 4.74609 5.76472 4.74609 8.25C4.74609 10.7353 6.76081 12.75 9.24609 12.75Z" stroke="#0E1C28" stroke-width="1.5" stroke-linecap="round" stroke-linejoin="round"/>
<path d="M9.24609 3.75V8.25L12.4281 11.432" stroke="#0E1C28" stroke-width="1.5" stroke-linecap="round" stroke-linejoin="round"/>
<path d="M17.4961 5.25H20.4961" stroke="#0E1C28" stroke-width="1.5" stroke-linecap="round" stroke-linejoin="round"/>
<path d="M17.4961 8.25H20.4961" stroke="#0E1C28" stroke-width="1.5" stroke-linecap="round" stroke-linejoin="round"/>
</svg>
