<svg width="24" height="24" viewBox="0 0 24 24" fill="none" xmlns="http://www.w3.org/2000/svg">
<path fill-rule="evenodd" clip-rule="evenodd" d="M5.25 5.25C5.25 4.42157 5.92157 3.75 6.75 3.75H8.25C9.07843 3.75 9.75 4.42157 9.75 5.25V18.75C9.75 19.5784 9.07843 20.25 8.25 20.25H6.75C5.92157 20.25 5.25 19.5784 5.25 18.75V5.25Z" stroke="#0E1C28" stroke-width="1.5" stroke-linecap="round" stroke-linejoin="round"/>
<path fill-rule="evenodd" clip-rule="evenodd" d="M14.25 5.25C14.25 4.42157 14.9216 3.75 15.75 3.75H17.25C18.0784 3.75 18.75 4.42157 18.75 5.25V18.75C18.75 19.5784 18.0784 20.25 17.25 20.25H15.75C14.9216 20.25 14.25 19.5784 14.25 18.75V5.25Z" stroke="#0E1C28" stroke-width="1.5" stroke-linecap="round" stroke-linejoin="round"/>
</svg>
