<svg width="24" height="25" viewBox="0 0 24 25" fill="none" xmlns="http://www.w3.org/2000/svg">
<path fill-rule="evenodd" clip-rule="evenodd" d="M12.3699 22.54L12.3799 22.547C14.1599 23.6804 16.4883 23.4247 17.9799 21.932L18.6089 21.303C18.8904 21.0217 19.0486 20.64 19.0486 20.242C19.0486 19.844 18.8904 19.4624 18.6089 19.181L15.9559 16.53C15.6745 16.2485 15.2929 16.0904 14.8949 16.0904C14.4969 16.0904 14.1152 16.2485 13.8339 16.53V16.53C13.2481 17.1156 12.2986 17.1156 11.7129 16.53L7.47088 12.287C6.88531 11.7013 6.88531 10.7518 7.47088 10.166V10.166C7.75239 9.8847 7.91056 9.50303 7.91056 9.10504C7.91056 8.70705 7.75239 8.32537 7.47088 8.04404L4.81888 5.39304C4.23313 4.80746 3.28363 4.80746 2.69788 5.39304L2.06788 6.02204C0.575569 7.51387 0.320275 9.84229 1.45388 11.622L1.45988 11.632C4.36606 15.9318 8.06956 19.6346 12.3699 22.54V22.54Z" stroke="#0E1C28" stroke-width="1.5" stroke-linecap="round" stroke-linejoin="round"/>
<path d="M11.25 8.25C13.7353 8.25 15.75 10.2647 15.75 12.75" stroke="#0E1C28" stroke-width="1.5" stroke-linecap="round" stroke-linejoin="round"/>
<path d="M11.25 4.5C15.8063 4.5 19.5 8.19365 19.5 12.75" stroke="#0E1C28" stroke-width="1.5" stroke-linecap="round" stroke-linejoin="round"/>
<path d="M11.25 0.75C17.8774 0.75 23.25 6.12258 23.25 12.75" stroke="#0E1C28" stroke-width="1.5" stroke-linecap="round" stroke-linejoin="round"/>
</svg>
