<svg width="24" height="24" viewBox="0 0 24 24" fill="none" xmlns="http://www.w3.org/2000/svg">
<path fill-rule="evenodd" clip-rule="evenodd" d="M0.75 2.25C0.75 1.42157 1.42157 0.75 2.25 0.75H21.75C22.5784 0.75 23.25 1.42157 23.25 2.25V21.75C23.25 22.5784 22.5784 23.25 21.75 23.25H2.25C1.42157 23.25 0.75 22.5784 0.75 21.75V2.25Z" stroke="#0E1C28" stroke-width="1.5" stroke-linecap="round" stroke-linejoin="round"/>
<path fill-rule="evenodd" clip-rule="evenodd" d="M16.5 10.5C18.1569 10.5 19.5 9.15685 19.5 7.5C19.5 5.84315 18.1569 4.5 16.5 4.5C14.8431 4.5 13.5 5.84315 13.5 7.5C13.5 9.15685 14.8431 10.5 16.5 10.5Z" stroke="#0E1C28" stroke-width="1.5" stroke-linecap="round" stroke-linejoin="round"/>
<path d="M3.96094 14.959C6.03114 13.7792 8.51238 13.5589 10.758 14.3557C13.0037 15.1524 14.7913 16.8873 15.6549 19.108" stroke="#0E1C28" stroke-width="1.5" stroke-linecap="round" stroke-linejoin="round"/>
<path d="M14.3821 16.9181C16.0267 15.419 18.5259 15.3656 20.2331 16.7931" stroke="#0E1C28" stroke-width="1.5" stroke-linecap="round" stroke-linejoin="round"/>
</svg>
