<svg width="24" height="24" viewBox="0 0 24 24" fill="none" xmlns="http://www.w3.org/2000/svg">
<path d="M23.25 9.5C23.25 11.1569 21.9069 12.5 20.25 12.5" stroke="#0E1C28" stroke-width="1.5" stroke-linecap="round" stroke-linejoin="round"/>
<path d="M8.25 8.00002C10.1406 7.06429 12.3594 7.06429 14.25 8.00002" stroke="#0E1C28" stroke-width="1.5" stroke-linecap="round" stroke-linejoin="round"/>
<path d="M6.375 11C6.16789 11 6 11.1679 6 11.375C6 11.5821 6.16789 11.75 6.375 11.75C6.58211 11.75 6.75 11.5821 6.75 11.375C6.75 11.1679 6.58211 11 6.375 11" stroke="#0E1C28" stroke-width="1.5" stroke-linecap="round" stroke-linejoin="round"/>
<path fill-rule="evenodd" clip-rule="evenodd" d="M7.9 4.883C6.726 2.756 3.75 2.75 3.75 2.75L4.376 7.134C3.55743 8.02606 2.95039 9.0911 2.6 10.25H0.75V16.25H3.24C3.75784 17.158 4.43933 17.9622 5.25 18.622V21.5C5.25 21.9142 5.58579 22.25 6 22.25H7.5C7.91421 22.25 8.25 21.9142 8.25 21.5V20.259C10.1964 20.9099 12.3012 20.9137 14.25 20.27V21.5C14.25 21.9142 14.5858 22.25 15 22.25H16.5C16.9142 22.25 17.25 21.9142 17.25 21.5V18.637C19.1237 17.1479 20.2259 14.8932 20.25 12.5C20.25 6.006 13.2 3.111 7.9 4.883Z" stroke="#0E1C28" stroke-width="1.5" stroke-linecap="round" stroke-linejoin="round"/>
</svg>
