<svg width="25" height="25" viewBox="0 0 25 25" fill="none" xmlns="http://www.w3.org/2000/svg">
<path fill-rule="evenodd" clip-rule="evenodd" d="M4.94895 9.78305C4.54798 10.0183 4.27876 10.4262 4.22004 10.8873C4.16131 11.3485 4.31973 11.8108 4.64895 12.139L12.8619 20.352C13.1902 20.6813 13.6525 20.8397 14.1137 20.781C14.5748 20.7222 14.9827 20.453 15.2179 20.052C16.1908 18.3784 16.4809 16.3941 16.0279 14.512L22.5569 10.357C22.9408 10.1129 23.1932 9.70769 23.2429 9.25546C23.2927 8.80323 23.1345 8.35286 22.8129 8.03105L16.9699 2.18805C16.6483 1.86635 16.198 1.70802 15.7458 1.7576C15.2936 1.80718 14.8883 2.0593 14.6439 2.44305L10.4889 8.97305C8.60685 8.52011 6.62258 8.81023 4.94895 9.78305Z" stroke="#0E1C28" stroke-width="1.5" stroke-linecap="round" stroke-linejoin="round"/>
<path d="M8.753 16.2461L0.75 24.2491" stroke="#0E1C28" stroke-width="1.5" stroke-linecap="round" stroke-linejoin="round"/>
</svg>
