<svg width="24" height="24" viewBox="0 0 24 24" fill="none" xmlns="http://www.w3.org/2000/svg">
<path fill-rule="evenodd" clip-rule="evenodd" d="M23.25 3.62895V20.3709C23.2501 20.6495 23.0957 20.9051 22.8492 21.0348C22.6026 21.1644 22.3046 21.1468 22.075 20.9889L9.90004 12.6179C9.69613 12.4783 9.57422 12.2471 9.57422 11.9999C9.57422 11.7528 9.69613 11.5216 9.90004 11.3819L22.075 3.01095C22.3046 2.8531 22.6026 2.83546 22.8492 2.96512C23.0957 3.09479 23.2501 3.3504 23.25 3.62895Z" stroke="#0E1C28" stroke-width="1.5" stroke-linecap="round" stroke-linejoin="round"/>
<path fill-rule="evenodd" clip-rule="evenodd" d="M0.75 3.75C0.75 2.92157 1.42157 2.25 2.25 2.25H3.75C4.57843 2.25 5.25 2.92157 5.25 3.75V20.25C5.25 21.0784 4.57843 21.75 3.75 21.75H2.25C1.42157 21.75 0.75 21.0784 0.75 20.25V3.75Z" stroke="#0E1C28" stroke-width="1.5" stroke-linecap="round" stroke-linejoin="round"/>
</svg>
