<svg width="24" height="24" viewBox="0 0 24 24" fill="none" xmlns="http://www.w3.org/2000/svg">
<path fill-rule="evenodd" clip-rule="evenodd" d="M21.75 23.25H2.25C1.42157 23.25 0.75 22.5784 0.75 21.75V7.243C0.75017 6.44742 1.06635 5.68448 1.629 5.122L5.121 1.629C5.68372 1.06611 6.44707 0.749905 7.243 0.75H21.75C22.5784 0.75 23.25 1.42157 23.25 2.25V21.75C23.25 22.5784 22.5784 23.25 21.75 23.25Z" stroke="#0E1C28" stroke-width="1.5" stroke-linecap="round" stroke-linejoin="round"/>
<path d="M8.25 0.75V6.75C8.25 7.57843 8.92157 8.25 9.75 8.25H17.25C18.0784 8.25 18.75 7.57843 18.75 6.75V0.75" stroke="#0E1C28" stroke-width="1.5" stroke-linecap="round" stroke-linejoin="round"/>
<path d="M15.75 3.75V5.25" stroke="#0E1C28" stroke-width="1.5" stroke-linecap="round" stroke-linejoin="round"/>
<path fill-rule="evenodd" clip-rule="evenodd" d="M17.25 12.75H6.75C5.92157 12.75 5.25 13.4216 5.25 14.25V23.25H18.75V14.25C18.75 13.4216 18.0784 12.75 17.25 12.75Z" stroke="#0E1C28" stroke-width="1.5" stroke-linecap="round" stroke-linejoin="round"/>
<path d="M8.25 15.75H12.75" stroke="#0E1C28" stroke-width="1.5" stroke-linecap="round" stroke-linejoin="round"/>
<path d="M8.25 18.75H15.75" stroke="#0E1C28" stroke-width="1.5" stroke-linecap="round" stroke-linejoin="round"/>
</svg>
