<svg width="24" height="24" viewBox="0 0 24 24" fill="none" xmlns="http://www.w3.org/2000/svg">
<path d="M23.25 11.25V4.65001C23.2501 4.03652 22.8766 3.48481 22.307 3.25701L16.307 0.857006C15.9494 0.714006 15.5506 0.714006 15.193 0.857006L8.80701 3.41201C8.44944 3.55501 8.05058 3.55501 7.69301 3.41201L1.77901 1.04601C1.54729 0.953139 1.28456 0.98165 1.07815 1.12206C0.871749 1.26247 0.748735 1.49637 0.75001 1.74601V16.119C0.749907 16.7325 1.12339 17.2842 1.69301 17.512L7.69301 19.912C8.05058 20.055 8.44944 20.055 8.80701 19.912" stroke="#0E1C28" stroke-width="1.5" stroke-linecap="round" stroke-linejoin="round"/>
<path d="M8.25 3.51904V11.25" stroke="#0E1C28" stroke-width="1.5" stroke-linecap="round" stroke-linejoin="round"/>
<path d="M15.75 0.75V7.5" stroke="#0E1C28" stroke-width="1.5" stroke-linecap="round" stroke-linejoin="round"/>
<path fill-rule="evenodd" clip-rule="evenodd" d="M16.5 21.75C19.3995 21.75 21.75 19.3995 21.75 16.5C21.75 13.6005 19.3995 11.25 16.5 11.25C13.6005 11.25 11.25 13.6005 11.25 16.5C11.25 19.3995 13.6005 21.75 16.5 21.75Z" stroke="#0E1C28" stroke-width="1.5" stroke-linecap="round" stroke-linejoin="round"/>
<path d="M23.2501 23.25L20.2361 20.236" stroke="#0E1C28" stroke-width="1.5" stroke-linecap="round" stroke-linejoin="round"/>
</svg>
