<svg width="24" height="24" viewBox="0 0 24 24" fill="none" xmlns="http://www.w3.org/2000/svg">
<path fill-rule="evenodd" clip-rule="evenodd" d="M15.75 21C18.6495 21 21 18.6495 21 15.75C21 12.8505 18.6495 10.5 15.75 10.5C12.8505 10.5 10.5 12.8505 10.5 15.75C10.5 18.6495 12.8505 21 15.75 21Z" stroke="#0E1C28" stroke-width="1.5" stroke-linecap="round" stroke-linejoin="round"/>
<path d="M23.2499 23.25L19.4619 19.462" stroke="#0E1C28" stroke-width="1.5" stroke-linecap="round" stroke-linejoin="round"/>
<path d="M12 23.25C5.7868 23.25 0.75 18.2132 0.75 12C0.75 5.7868 5.7868 0.75 12 0.75C18.2132 0.75 23.25 5.7868 23.25 12" stroke="#0E1C28" stroke-width="1.5" stroke-linecap="round" stroke-linejoin="round"/>
<path d="M9.289 22.921C7.768 20.689 6.75 16.633 6.75 12C6.75 7.36698 7.768 3.31198 9.289 1.07898" stroke="#0E1C28" stroke-width="1.5" stroke-linecap="round" stroke-linejoin="round"/>
<path d="M0.774902 11.25H8.9999" stroke="#0E1C28" stroke-width="1.5" stroke-linecap="round" stroke-linejoin="round"/>
<path d="M2.99902 5.25H21" stroke="#0E1C28" stroke-width="1.5" stroke-linecap="round" stroke-linejoin="round"/>
<path d="M2.0481 17.25H7.2141" stroke="#0E1C28" stroke-width="1.5" stroke-linecap="round" stroke-linejoin="round"/>
<path d="M14.7109 1.07898C15.8892 3.03824 16.639 5.22493 16.9109 7.49498" stroke="#0E1C28" stroke-width="1.5" stroke-linecap="round" stroke-linejoin="round"/>
</svg>
