<svg width="24" height="25" viewBox="0 0 24 25" fill="none" xmlns="http://www.w3.org/2000/svg">
<path fill-rule="evenodd" clip-rule="evenodd" d="M2.75908 16.629C2.01678 16.629 1.36427 16.1373 1.15961 15.4238C0.954947 14.7103 1.24765 13.9475 1.87708 13.554L20.3601 1.99999C20.9204 1.64935 21.6352 1.66382 22.1808 2.03684C22.7265 2.40987 22.9994 3.07063 22.8761 3.71999L19.2761 22.893C19.154 23.5411 18.6607 24.056 18.0184 24.2056C17.3761 24.3552 16.706 24.1114 16.3101 23.584L11.1001 16.629H2.75908Z" stroke="#0E1C28" stroke-width="1.5" stroke-linecap="round" stroke-linejoin="round"/>
<path fill-rule="evenodd" clip-rule="evenodd" d="M11.1001 16.629H8.6001V21.8C8.60006 22.4165 8.94105 22.9824 9.48609 23.2704C10.0311 23.5585 10.6908 23.5214 11.2001 23.174L14.3781 21.008L11.1001 16.629Z" stroke="#0E1C28" stroke-width="1.5" stroke-linecap="round" stroke-linejoin="round"/>
<path d="M11.0991 16.6289L22.1791 2.03894" stroke="#0E1C28" stroke-width="1.5" stroke-linecap="round" stroke-linejoin="round"/>
</svg>
