<svg width="24" height="24" viewBox="0 0 24 24" fill="none" xmlns="http://www.w3.org/2000/svg">
<path d="M8.312 17.25H2.25C1.42157 17.25 0.75 16.5784 0.75 15.75V3.75C0.75 2.92157 1.42157 2.25 2.25 2.25H15.75C16.5784 2.25 17.25 2.92157 17.25 3.75V6.75" stroke="#0E1C28" stroke-width="1.5" stroke-linecap="round" stroke-linejoin="round"/>
<path d="M0.75 6.75H17.25" stroke="#0E1C28" stroke-width="1.5" stroke-linecap="round" stroke-linejoin="round"/>
<path d="M5.25 3.75V0.75" stroke="#0E1C28" stroke-width="1.5" stroke-linecap="round" stroke-linejoin="round"/>
<path d="M12.75 3.75V0.75" stroke="#0E1C28" stroke-width="1.5" stroke-linecap="round" stroke-linejoin="round"/>
<path fill-rule="evenodd" clip-rule="evenodd" d="M17.25 18C18.0784 18 18.75 17.3284 18.75 16.5C18.75 15.6716 18.0784 15 17.25 15C16.4216 15 15.75 15.6716 15.75 16.5C15.75 17.3284 16.4216 18 17.25 18Z" stroke="#0E1C28" stroke-width="1.5" stroke-linecap="round" stroke-linejoin="round"/>
<path fill-rule="evenodd" clip-rule="evenodd" d="M18.524 10.7L18.966 12.152C19.1169 12.6528 19.6304 12.9506 20.14 12.833L21.612 12.492C22.1847 12.363 22.7747 12.622 23.0672 13.131C23.3598 13.6399 23.2867 14.2801 22.887 14.71L21.856 15.821C21.499 16.2049 21.499 16.7992 21.856 17.183L22.887 18.294C23.2877 18.7238 23.3613 19.3647 23.0686 19.8741C22.7758 20.3836 22.1851 20.6427 21.612 20.513L20.14 20.171C19.6309 20.0571 19.1198 20.3536 18.966 20.852L18.524 22.3C18.3553 22.8628 17.8375 23.2482 17.25 23.2482C16.6625 23.2482 16.1447 22.8628 15.976 22.3L15.534 20.847C15.3802 20.3486 14.8691 20.0521 14.36 20.166L12.888 20.508C12.3149 20.6377 11.7242 20.3786 11.4314 19.8691C11.1387 19.3597 11.2123 18.7188 11.613 18.289L12.644 17.178C13.001 16.7942 13.001 16.1999 12.644 15.816L11.613 14.705C11.2133 14.2751 11.1402 13.6349 11.4328 13.126C11.7253 12.617 12.3153 12.358 12.888 12.487L14.36 12.828C14.8696 12.9456 15.3831 12.6478 15.534 12.147L15.976 10.695C16.1458 10.1326 16.6644 9.74824 17.2519 9.74939C17.8393 9.75055 18.3564 10.137 18.524 10.7Z" stroke="#0E1C28" stroke-width="1.5" stroke-linecap="round" stroke-linejoin="round"/>
</svg>
