<svg width="24" height="24" viewBox="0 0 24 24" fill="none" xmlns="http://www.w3.org/2000/svg">
<path fill-rule="evenodd" clip-rule="evenodd" d="M17.25 18C18.0784 18 18.75 17.3284 18.75 16.5C18.75 15.6716 18.0784 15 17.25 15C16.4216 15 15.75 15.6716 15.75 16.5C15.75 17.3284 16.4216 18 17.25 18Z" stroke="#0E1C28" stroke-width="1.5" stroke-linecap="round" stroke-linejoin="round"/>
<path fill-rule="evenodd" clip-rule="evenodd" d="M18.524 10.7L18.966 12.153C19.1174 12.6535 19.6305 12.9511 20.14 12.834L21.612 12.493C22.1847 12.364 22.7747 12.623 23.0673 13.132C23.3599 13.6409 23.2868 14.2811 22.887 14.711L21.856 15.822C21.4991 16.2059 21.4991 16.8002 21.856 17.184L22.887 18.295C23.2868 18.725 23.3599 19.3652 23.0673 19.8741C22.7747 20.3831 22.1847 20.6421 21.612 20.513L20.14 20.172C19.6305 20.055 19.1174 20.3526 18.966 20.853L18.524 22.3C18.3554 22.8628 17.8375 23.2482 17.25 23.2482C16.6626 23.2482 16.1447 22.8628 15.976 22.3L15.534 20.847C15.3827 20.3466 14.8696 20.049 14.36 20.166L12.888 20.507C12.3153 20.6361 11.7254 20.3771 11.4328 19.8681C11.1402 19.3592 11.2133 18.719 11.613 18.289L12.644 17.178C13.001 16.7942 13.001 16.1999 12.644 15.816L11.613 14.705C11.2133 14.2751 11.1402 13.6349 11.4328 13.126C11.7254 12.617 12.3153 12.358 12.888 12.487L14.36 12.828C14.8696 12.9451 15.3827 12.6475 15.534 12.147L15.976 10.694C16.146 10.1317 16.6648 9.74752 17.2523 9.74891C17.8397 9.75029 18.3567 10.1369 18.524 10.7V10.7Z" stroke="#0E1C28" stroke-width="1.5" stroke-linecap="round" stroke-linejoin="round"/>
<path d="M8.25 20.25H2.25C1.42157 20.25 0.75 19.5784 0.75 18.75V2.25C0.75 1.42157 1.42157 0.75 2.25 0.75H12.879C13.2765 0.750085 13.6578 0.907982 13.939 1.189L16.811 4.061C17.092 4.3422 17.2499 4.72345 17.25 5.121V6.75" stroke="#0E1C28" stroke-width="1.5" stroke-linecap="round" stroke-linejoin="round"/>
</svg>
