<svg width="24" height="24" viewBox="0 0 24 24" fill="none" xmlns="http://www.w3.org/2000/svg">
<path d="M0.85498 14.251V23.251" stroke="#0E1C28" stroke-width="1.5" stroke-linecap="round" stroke-linejoin="round"/>
<path d="M0.85498 21.751H15.855C15.855 20.0941 14.5118 18.751 12.855 18.751H9.10498C9.10498 17.0941 7.76183 15.751 6.10498 15.751H0.85498" stroke="#0E1C28" stroke-width="1.5" stroke-linecap="round" stroke-linejoin="round"/>
<path d="M6.10498 18.751H9.10498" stroke="#0E1C28" stroke-width="1.5" stroke-linecap="round" stroke-linejoin="round"/>
<path fill-rule="evenodd" clip-rule="evenodd" d="M15.104 12.001C16.3466 12.001 17.354 10.9936 17.354 9.75098C17.354 8.50834 16.3466 7.50098 15.104 7.50098C13.8614 7.50098 12.854 8.50834 12.854 9.75098C12.854 10.9936 13.8614 12.001 15.104 12.001Z" stroke="#0E1C28" stroke-width="1.5" stroke-linecap="round" stroke-linejoin="round"/>
<path d="M16.9249 16.5L17.0839 15.387C17.7859 15.1423 18.4358 14.7682 18.9999 14.284L20.9459 15.065C21.6387 15.3432 22.4306 15.0695 22.8039 14.423L23.0039 14.078C23.3772 13.4315 23.2182 12.6089 22.6309 12.148L20.9979 10.866C21.1472 10.1298 21.1472 9.37115 20.9979 8.63498L22.6309 7.35298C23.2168 6.89097 23.3741 6.06855 22.9999 5.42298L22.7999 5.07798C22.4266 4.43142 21.6347 4.15779 20.9419 4.43598L18.9999 5.21698C18.4371 4.73438 17.7889 4.3613 17.0889 4.11698L16.7889 2.04298C16.685 1.30083 16.0493 0.749237 15.2999 0.750981H14.8999C14.1556 0.753363 13.5256 1.3012 13.4199 2.03798L13.1199 4.11198C12.4202 4.3563 11.7724 4.72939 11.2099 5.21198L9.26691 4.43598C8.57439 4.15837 7.7831 4.43193 7.40991 5.07798L7.20991 5.42298C6.83643 6.06926 6.99497 6.89182 7.58191 7.35298L9.21691 8.63498C9.06623 9.37101 9.06623 10.1299 9.21691 10.866L7.58291 12.148" stroke="#0E1C28" stroke-width="1.5" stroke-linecap="round" stroke-linejoin="round"/>
</svg>
