<svg width="24" height="25" viewBox="0 0 24 25" fill="none" xmlns="http://www.w3.org/2000/svg">
<path d="M16.313 11.26L10.721 16.852C10.5675 17.0058 10.3592 17.0922 10.142 17.0922C9.92475 17.0922 9.71644 17.0058 9.56299 16.852L7.68799 14.976" stroke="#0E1C28" stroke-width="1.5" stroke-linecap="round" stroke-linejoin="round"/>
<path fill-rule="evenodd" clip-rule="evenodd" d="M15.75 4.51001H19.5C20.3284 4.51001 21 5.18158 21 6.01001V21.76C21 22.5884 20.3284 23.26 19.5 23.26H4.5C3.67157 23.26 3 22.5884 3 21.76V6.01001C3 5.18158 3.67157 4.51001 4.5 4.51001H8.25C8.25 2.43894 9.92893 0.76001 12 0.76001C14.0711 0.76001 15.75 2.43894 15.75 4.51001Z" stroke="#0E1C28" stroke-width="1.5" stroke-linecap="round" stroke-linejoin="round"/>
<path d="M12.057 3.76498C12.2069 3.78821 12.328 3.89946 12.3639 4.04684C12.3998 4.19422 12.3433 4.34871 12.2209 4.43825C12.0985 4.52778 11.9341 4.53475 11.8046 4.45588C11.675 4.37702 11.6057 4.22786 11.629 4.07798C11.6608 3.87338 11.8524 3.73326 12.057 3.76498" stroke="#0E1C28" stroke-width="1.5" stroke-linecap="round" stroke-linejoin="round"/>
</svg>
