<svg width="24" height="25" viewBox="0 0 24 25" fill="none" xmlns="http://www.w3.org/2000/svg">
<path d="M7.5 10.51H16.5" stroke="#0E1C28" stroke-width="1.5" stroke-linecap="round" stroke-linejoin="round"/>
<path d="M7.5 14.26H16.5" stroke="#0E1C28" stroke-width="1.5" stroke-linecap="round" stroke-linejoin="round"/>
<path d="M7.5 18.01H16.5" stroke="#0E1C28" stroke-width="1.5" stroke-linecap="round" stroke-linejoin="round"/>
<path fill-rule="evenodd" clip-rule="evenodd" d="M15.75 4.51001H19.5C20.3284 4.51001 21 5.18158 21 6.01001V21.76C21 22.5884 20.3284 23.26 19.5 23.26H4.5C3.67157 23.26 3 22.5884 3 21.76V6.01001C3 5.18158 3.67157 4.51001 4.5 4.51001H8.25C8.25 2.43894 9.92893 0.76001 12 0.76001C14.0711 0.76001 15.75 2.43894 15.75 4.51001Z" stroke="#0E1C28" stroke-width="1.5" stroke-linecap="round" stroke-linejoin="round"/>
<path d="M12 3.76001C12.2071 3.76001 12.375 3.9279 12.375 4.13501C12.375 4.34212 12.2071 4.51001 12 4.51001C11.7929 4.51001 11.625 4.34212 11.625 4.13501C11.625 3.9279 11.7929 3.76001 12 3.76001" stroke="#0E1C28" stroke-width="1.5" stroke-linecap="round" stroke-linejoin="round"/>
</svg>
