<svg width="24" height="25" viewBox="0 0 24 25" fill="none" xmlns="http://www.w3.org/2000/svg">
<path d="M8.25 13.511L12 9.76099L15.75 13.511" stroke="#0E1C28" stroke-width="1.5" stroke-linecap="round" stroke-linejoin="round"/>
<path d="M12 9.76099V18.761" stroke="#0E1C28" stroke-width="1.5" stroke-linecap="round" stroke-linejoin="round"/>
<path fill-rule="evenodd" clip-rule="evenodd" d="M15.75 4.51099H19.5C20.3284 4.51099 21 5.18256 21 6.01099V21.761C21 22.5894 20.3284 23.261 19.5 23.261H4.5C3.67157 23.261 3 22.5894 3 21.761V6.01099C3 5.18256 3.67157 4.51099 4.5 4.51099H8.25C8.25 2.43992 9.92893 0.760986 12 0.760986C14.0711 0.760986 15.75 2.43992 15.75 4.51099Z" stroke="#0E1C28" stroke-width="1.5" stroke-linecap="round" stroke-linejoin="round"/>
<path d="M12 3.76099C12.2071 3.76099 12.375 3.92888 12.375 4.13599C12.375 4.34309 12.2071 4.51099 12 4.51099C11.7929 4.51099 11.625 4.34309 11.625 4.13599C11.625 3.92888 11.7929 3.76099 12 3.76099" stroke="#0E1C28" stroke-width="1.5" stroke-linecap="round" stroke-linejoin="round"/>
</svg>
