<svg width="25" height="24" viewBox="0 0 25 24" fill="none" xmlns="http://www.w3.org/2000/svg">
<path fill-rule="evenodd" clip-rule="evenodd" d="M12.0001 5.25096C7.96907 5.18296 3.80007 7.99996 1.17907 10.885C0.609255 11.5176 0.609255 12.4784 1.17907 13.111C3.74307 15.935 7.90007 18.817 12.0001 18.748C16.1001 18.817 20.2581 15.935 22.8241 13.111C23.3939 12.4784 23.3939 11.5176 22.8241 10.885C20.2001 7.99996 16.0311 5.18296 12.0001 5.25096Z" stroke="#0E1C28" stroke-width="1.5" stroke-linecap="round" stroke-linejoin="round"/>
<path fill-rule="evenodd" clip-rule="evenodd" d="M15.75 12C15.7494 14.071 14.0703 15.7494 11.9993 15.749C9.9284 15.7487 8.24982 14.0696 8.25 11.9987C8.25018 9.92775 9.92906 8.24902 12 8.24902C12.9948 8.24876 13.9489 8.6439 14.6523 9.34743C15.3556 10.051 15.7505 11.0052 15.75 12V12Z" stroke="#0E1C28" stroke-width="1.5" stroke-linecap="round" stroke-linejoin="round"/>
</svg>
