<svg width="24" height="24" viewBox="0 0 24 24" fill="none" xmlns="http://www.w3.org/2000/svg">
<path fill-rule="evenodd" clip-rule="evenodd" d="M14.171 4.65803C13.6627 4.40397 13.0545 4.45895 12.6 4.80003L6 9.00003H3C2.17157 9.00003 1.5 9.67161 1.5 10.5V13.5C1.5 14.3285 2.17157 15 3 15H6L12.6 19.2C13.0545 19.5409 13.6626 19.5958 14.1708 19.3417C14.679 19.0876 15 18.5682 15 18V6.00003C15.0002 5.43179 14.6792 4.91223 14.171 4.65803Z" stroke="#0E1C28" stroke-width="1.5" stroke-linecap="round" stroke-linejoin="round"/>
<path d="M21.4629 15.75C22.8443 13.5849 22.8443 10.8151 21.4629 8.65002" stroke="#0E1C28" stroke-width="1.5" stroke-linecap="round" stroke-linejoin="round"/>
<path d="M18.562 14.441C19.6046 13.1577 19.6046 11.3193 18.562 10.036" stroke="#0E1C28" stroke-width="1.5" stroke-linecap="round" stroke-linejoin="round"/>
<path d="M6 9V15" stroke="#0E1C28" stroke-width="1.5" stroke-linecap="round" stroke-linejoin="round"/>
</svg>
