<svg width="24" height="24" viewBox="0 0 24 24" fill="none" xmlns="http://www.w3.org/2000/svg">
<path fill-rule="evenodd" clip-rule="evenodd" d="M14.9999 4.65803C14.4916 4.40397 13.8834 4.45895 13.4289 4.80003L6.82788 9.00003H3.82788C2.99945 9.00003 2.32788 9.67161 2.32788 10.5V13.5C2.32788 14.3285 2.99945 15 3.82788 15H6.82788L13.4279 19.2C13.8824 19.5409 14.4905 19.5958 14.9987 19.3417C15.5069 19.0876 15.8279 18.5682 15.8279 18V6.00003C15.8282 5.43201 15.5077 4.91251 14.9999 4.65803Z" stroke="#0E1C28" stroke-width="1.5" stroke-linecap="round" stroke-linejoin="round"/>
<path d="M20.3279 15.0001C21.1763 14.3349 21.6719 13.3166 21.6719 12.2386C21.6719 11.1605 21.1763 10.1422 20.3279 9.47705" stroke="#0E1C28" stroke-width="1.5" stroke-linecap="round" stroke-linejoin="round"/>
<path d="M6.82788 9V15" stroke="#0E1C28" stroke-width="1.5" stroke-linecap="round" stroke-linejoin="round"/>
</svg>
