<svg width="24" height="24" viewBox="0 0 24 24" fill="none" xmlns="http://www.w3.org/2000/svg">
<path d="M21.75 18V21C21.75 21.8284 21.0784 22.5 20.25 22.5H3C1.75736 22.5 0.75 21.4926 0.75 20.25V3.75C0.75 2.50736 1.75736 1.5 3 1.5H18.75C19.1478 1.5 19.5294 1.65804 19.8107 1.93934C20.092 2.22064 20.25 2.60218 20.25 3V5.25" stroke="#0E1C28" stroke-width="1.5" stroke-linecap="round" stroke-linejoin="round"/>
<path fill-rule="evenodd" clip-rule="evenodd" d="M21.75 18C22.5784 18 23.25 17.3284 23.25 16.5V12C23.25 11.1716 22.5784 10.5 21.75 10.5H18C15.9289 10.5 14.25 12.1789 14.25 14.25C14.25 16.3211 15.9289 18 18 18H21.75Z" stroke="#0E1C28" stroke-width="1.5" stroke-linecap="round" stroke-linejoin="round"/>
<path d="M18 13.875C18.2071 13.875 18.375 14.0429 18.375 14.25C18.375 14.4571 18.2071 14.625 18 14.625C17.7929 14.625 17.625 14.4571 17.625 14.25C17.625 14.0429 17.7929 13.875 18 13.875" stroke="#0E1C28" stroke-width="1.5" stroke-linecap="round" stroke-linejoin="round"/>
<path d="M21.75 10.5V6.74998C21.75 5.92155 21.0784 5.24998 20.25 5.24998H5.62499C4.96095 5.28121 4.3362 4.93477 4.01099 4.35498" stroke="#0E1C28" stroke-width="1.5" stroke-linecap="round" stroke-linejoin="round"/>
</svg>
