<svg width="25" height="25" viewBox="0 0 25 25" fill="none" xmlns="http://www.w3.org/2000/svg">
<path fill-rule="evenodd" clip-rule="evenodd" d="M22.2141 12.606C24.3316 10.4894 24.8554 7.25461 23.5141 4.57798L19.9641 8.12398C19.3783 8.70955 18.4288 8.70955 17.8431 8.12398L17.0431 7.32398C16.7616 7.04264 16.6034 6.66097 16.6034 6.26298C16.6034 5.86499 16.7616 5.48331 17.0431 5.20198L20.6431 1.60198C17.9991 0.158317 14.726 0.583192 12.5382 2.65405C10.3505 4.7249 9.74666 7.96978 11.0431 10.689L2.20009 19.526C1.91051 19.8152 1.7478 20.2077 1.7478 20.617C1.7478 21.0263 1.91051 21.4187 2.20009 21.708L3.29109 22.8C3.58049 23.0896 3.97314 23.2523 4.38259 23.2523C4.79203 23.2523 5.18468 23.0896 5.47409 22.8L14.3101 13.964C16.9664 15.2316 20.1332 14.6875 22.2141 12.606V12.606Z" stroke="#0E1C28" stroke-width="1.5" stroke-linecap="round" stroke-linejoin="round"/>
</svg>
