<svg width="24" height="24" viewBox="0 0 24 24" fill="none" xmlns="http://www.w3.org/2000/svg">
<path fill-rule="evenodd" clip-rule="evenodd" d="M9.40001 16.742L16.741 9.40002C18.4808 10.2302 20.5549 9.87406 21.918 8.51097C23.281 7.14789 23.6372 5.07377 22.807 3.33402L21.382 4.76302C20.79 5.35507 19.8301 5.35507 19.238 4.76302C18.646 4.17097 18.646 3.21107 19.238 2.61902L20.662 1.19402C18.9226 0.366656 16.8507 0.724165 15.4892 2.0866C14.1276 3.44904 13.7715 5.52118 14.6 7.26002L7.25901 14.6C5.51926 13.7698 3.44515 14.126 2.08206 15.4891C0.718975 16.8522 0.362782 18.9263 1.19301 20.666L2.61801 19.242C3.21006 18.65 4.16996 18.65 4.76201 19.242C5.35406 19.8341 5.35406 20.794 4.76201 21.386L3.33801 22.808C5.0774 23.6354 7.1493 23.2779 8.51084 21.9154C9.87238 20.553 10.2285 18.4809 9.40001 16.742Z" stroke="#0E1C28" stroke-width="1.5" stroke-linecap="round" stroke-linejoin="round"/>
</svg>
