<svg width="24" height="24" viewBox="0 0 24 24" fill="none" xmlns="http://www.w3.org/2000/svg">
<path d="M8.25 23.25H2.25C1.42157 23.25 0.75 22.5784 0.75 21.75V2.25C0.75 1.42157 1.42157 0.75 2.25 0.75H12.879C13.2765 0.750085 13.6578 0.907982 13.939 1.189L19.811 7.061C20.092 7.3422 20.2499 7.72345 20.25 8.121V12.75" stroke="#0E1C28" stroke-width="1.5" stroke-linecap="round" stroke-linejoin="round"/>
<path d="M20.25 8.25H14.25C13.4216 8.25 12.75 7.57843 12.75 6.75V0.75" stroke="#0E1C28" stroke-width="1.5" stroke-linecap="round" stroke-linejoin="round"/>
<path d="M11.25 15.75H13.142C13.3914 15.7489 13.625 15.8717 13.7654 16.0779C13.9057 16.284 13.9344 16.5464 13.842 16.778L11.664 22.221C11.5717 22.4527 11.6004 22.7152 11.7407 22.9214C11.881 23.1277 12.1146 23.2508 12.364 23.25H14.25" stroke="#0E1C28" stroke-width="1.5" stroke-linecap="round" stroke-linejoin="round"/>
<path d="M17.25 23.25V15.75" stroke="#0E1C28" stroke-width="1.5" stroke-linecap="round" stroke-linejoin="round"/>
<path d="M20.25 23.25V15.75" stroke="#0E1C28" stroke-width="1.5" stroke-linecap="round" stroke-linejoin="round"/>
<path d="M20.25 15.75H21C22.2426 15.75 23.25 16.7574 23.25 18C23.25 19.2426 22.2426 20.25 21 20.25H20.25" stroke="#0E1C28" stroke-width="1.5" stroke-linecap="round" stroke-linejoin="round"/>
</svg>
